<svg width="1440" height="1024" viewBox="0 0 1440 1024" fill="none" xmlns="http://www.w3.org/2000/svg">
<g clip-path="url(#clip0_1_2)">
<path d="M39.5 626.5L97 545M39.5 626.5L156.5 677.5M39.5 626.5V508M39.5 626.5L12.5 709.5M39.5 626.5L-31 592.5M97 545L227.5 567M97 545L85.5 416.5M97 545L227.5 428M227.5 567L156.5 677.5M227.5 567L329.5 526.5M156.5 677.5L287 626.5M156.5 677.5L68.5 764M156.5 677.5L227.5 720M85.5 416.5L39.5 508M85.5 416.5L199 348.5M85.5 416.5L24 335M39.5 508L-17.5 447M227.5 428L329.5 526.5M227.5 428L199 348.5M227.5 428H348M329.5 526.5L287 626.5M329.5 526.5L450 497.5M287 626.5L361.5 709.5M287 626.5L450 606M199 348.5L348 309.5M199 348.5L117.5 279M68.5 764L12.5 709.5M68.5 764L175 826.5M68.5 764L24 850.5M12.5 709.5L-53.5 698M12.5 709.5L-31 798.5M175 826.5L227.5 720M175 826.5H304M175 826.5L85.5 896M175 826.5L244.5 920M227.5 720L361.5 709.5M361.5 709.5L304 826.5M361.5 709.5L465 698M304 826.5L422.5 789.5M304 826.5L348 896M450 606L465 698M450 606V497.5M450 606L534.5 645M465 698L422.5 789.5M465 698L561.5 728.5M422.5 789.5L465 896M422.5 789.5L522.5 826.5M450 497.5L348 428M450 497.5L580.5 545M348 428V309.5M348 428L509 416.5M348 309.5L227.5 226.5M348 309.5L450 348.5M348 309.5L395.5 226.5M24 335L117.5 279M24 335L-17.5 447M24 335L-17.5 248.5M117.5 279L227.5 226.5M117.5 279L39.5 218M227.5 226.5L117.5 177.5M227.5 226.5L287 143.5M39.5 218L117.5 177.5M39.5 218L24 135M39.5 218L-17.5 248.5M117.5 177.5L144.5 114.5M24 850.5L85.5 896M24 850.5L-31 798.5M24 850.5L-53.5 909.5M85.5 896L187 959M85.5 896L24 959M187 959L244.5 920M187 959L68.5 1009.5M187 959L314 1009.5M187 959V1055M244.5 920L348 896M348 896H465M348 896L314 1009.5M465 896L422.5 982.5M465 896L561.5 920M24 959L68.5 1009.5M24 959L-53.5 909.5M68.5 1009.5L-31 1044M68.5 1009.5C68.5 1023.5 87.5 1057 97 1072M314 1009.5L422.5 982.5M314 1009.5L304 1044M422.5 982.5L561.5 1009.5M422.5 982.5L395.5 1055M561.5 1009.5V920M561.5 1009.5H700.5M561.5 1009.5L580.5 1055M561.5 920L522.5 826.5M561.5 920L700.5 896M522.5 826.5L561.5 728.5M522.5 826.5L639.5 835M561.5 728.5L534.5 645M561.5 728.5L687 720M534.5 645L580.5 545M534.5 645L668.5 626.5M580.5 545L509 416.5M580.5 545L728 581M580.5 545L668.5 467M509 416.5L450 348.5M509 416.5L602.5 360.5M450 348.5L495.5 299.5M287 143.5L144.5 114.5M287 143.5L260 47M287 143.5L395.5 226.5M287 143.5L395.5 114.5M144.5 114.5L24 135M144.5 114.5L156.5 21.5M24 135L39.5 35M24 135L-61 155.5M39.5 35L156.5 21.5M39.5 35L-53.5 14.5M39.5 35V-29M156.5 21.5L260 47M156.5 21.5V-19.5M260 47L382 21.5M260 47V-19.5M395.5 226.5L495.5 155.5M395.5 226.5L495.5 299.5M395.5 114.5L382 21.5M395.5 114.5L495.5 155.5M382 21.5H522.5M382 21.5L395.5 -19.5M495.5 155.5L617.5 218M495.5 155.5L522.5 21.5M495.5 155.5L639.5 114.5M495.5 299.5L602.5 360.5M495.5 299.5L617.5 218M602.5 360.5L668.5 467M602.5 360.5L712.5 226.5M602.5 360.5L744.5 391M617.5 218L712.5 226.5M522.5 21.5L687 47M522.5 21.5L534.5 -19.5M700.5 1009.5V896M700.5 1009.5L792 972.5M700.5 1009.5L728 1055M700.5 896L639.5 835M700.5 896L829.5 920M700.5 896L765 826.5M639.5 835L687 720M687 720L668.5 626.5M687 720L765 826.5M687 720L821 664M668.5 626.5L728 581M728 581L807.5 508M728 581L821 664M668.5 467L807.5 508M807.5 508L744.5 391M807.5 508L917.5 467M807.5 508L926 626.5M712.5 226.5L639.5 114.5M712.5 226.5L775 114.5M712.5 226.5L775 279M639.5 114.5L687 47M687 47L775 114.5M687 47L861.5 21.5M687 47L712.5 -29M775 114.5L829.5 226.5M775 114.5L899 89M744.5 391L775 279M744.5 391H883.5M775 279L829.5 226.5M775 279L883.5 325M829.5 226.5L917.5 192.5M861.5 21.5L899 89M861.5 21.5H1046.5M861.5 21.5L829.5 -38.5M899 89L917.5 192.5M899 89L1028 69M917.5 192.5L883.5 325M917.5 192.5L1006 155.5M883.5 391L917.5 467M883.5 391V325M883.5 391L973.5 379M917.5 467L1028 545M917.5 467L1073.5 447M883.5 325L1006 267M829.5 920L792 972.5M829.5 920L807.5 862M829.5 920L973.5 930M792 972.5L926 1009.5M792 972.5L807.5 1093M765 826.5L807.5 862M765 826.5L829.5 750.5M807.5 862L917.5 826.5M821 664L829.5 750.5M821 664L926 626.5M829.5 750.5L917.5 826.5M829.5 750.5L992 709.5M917.5 826.5L973.5 930M917.5 826.5L1028 789.5M926 1009.5L973.5 930M926 1009.5L1062 998M926 1009.5L917.5 1044M973.5 930L1094 909.5M992 709.5L1028 789.5M992 709.5L926 626.5M992 709.5L1094 645M1028 789.5L1094 909.5M1028 789.5C1050 772 1094 735.3 1094 728.5M926 626.5L1028 545M1028 545L1094 645M1028 545L1124.5 508M1028 69L1046.5 21.5M1028 69L1006 155.5M1028 69L1104 104.5M1046.5 21.5L1223 35M1046.5 21.5C1055.3 22.1731 1122.5 -18.2195 1155 -38.5M1046.5 21.5L992 -38.5M1006 155.5V267M1006 155.5C1014 155.5 1088.33 188.167 1124.5 204.5M1006 267L973.5 379M1006 267L1180.5 286M973.5 379L1073.5 447M973.5 379L1155 348.5M1073.5 447L1124.5 508M1073.5 447L1173.5 391M1094 645C1094 670 1094 721.7 1094 728.5M1094 645L1155 606M1094 909.5L1062 998M1094 909.5L1223 930M1094 909.5L1180.5 826.5M1062 998L1189 1009.5M1062 998L1046.5 1055M1094 728.5L1180.5 826.5M1094 728.5L1189 709.5M1124.5 508L1155 606M1124.5 508L1256.5 467M1155 606L1189 709.5M1155 606L1223 567M1155 348.5L1173.5 391M1155 348.5L1180.5 286M1173.5 391L1256.5 467M1173.5 391L1289 360.5M1180.5 286L1124.5 204.5M1180.5 286L1289 360.5M1180.5 286L1256.5 226.5M1104 104.5L1223 35M1104 104.5L1124.5 204.5M1223 35L1206 135M1223 35L1358.5 21.5M1223 35V-50M1124.5 204.5L1206 135M1206 135L1256.5 226.5M1206 135H1317.5M1189 1009.5L1223 930M1189 1009.5L1350 998M1189 1009.5L1243 1072M1223 930L1279 882.5M1180.5 826.5L1279 882.5M1180.5 826.5L1265 764M1189 709.5L1265 764M1189 709.5L1243 677.5M1279 882.5C1284.2 898.9 1328.5 966.333 1350 998M1279 882.5L1350 826.5M1350 998L1367 925M1350 998L1427.5 1009.5M1350 998L1343 1044M1265 764L1350 826.5M1265 764L1358.5 728.5M1350 826.5L1420 798.5M1350 826.5L1367 925M1256.5 467L1223 567M1256.5 467L1343 428M1223 567L1243 677.5M1223 567L1343 526.5M1243 677.5L1358.5 728.5M1243 677.5L1343 613M1358.5 728.5L1427.5 677.5M1358.5 728.5L1420 798.5M1343 613V526.5M1343 613L1427.5 677.5M1343 526.5V428M1343 526.5L1401.1 545M1343 428L1289 360.5M1343 428L1427.5 447M1289 360.5C1289 350.9 1335.33 261.5 1358.5 218M1289 360.5L1405 335M1256.5 226.5L1358.5 218M1317.5 135L1358.5 21.5M1317.5 135L1358.5 218M1317.5 135L1416 114.5M1358.5 21.5H1427.5M1358.5 21.5V-38.5M1358.5 218L1427.5 204.5M1416 114.5L1427.5 21.5M1416 114.5L1427.5 204.5M1416 114.5L1471 143.5M1427.5 21.5L1509 69M1427.5 21.5L1461.5 -86M1427.5 204.5L1405 335M1427.5 204.5H1471M1405 335L1427.5 447M1405 335L1448.5 325M1427.5 447L1401.1 545M1427.5 447L1471 567M1427.5 447L1509 428M1401.1 545L1427.5 677.5M1427.5 677.5L1461.5 798.5M1427.5 677.5L1471 567M1420 798.5L1427.5 930M1420 798.5H1461.5M1367 925L1427.5 930M1427.5 930V1009.5M1427.5 930L1484 945.5M1427.5 1009.5L1471 1044M-17.5 447L-61 348.5L-17.5 248.5M-17.5 447L-31 592.5M-17.5 248.5L-61 155.5M-61 155.5L-53.5 14.5M-53.5 14.5L-31 -19.5L39.5 -29M-31 592.5L-53.5 698M-53.5 698V764L-31 798.5M-31 798.5L-61 826.5L-53.5 909.5M-53.5 909.5L-31 1044M-31 1044L-17.5 1093L97 1072M97 1072L187 1055M187 1055L304 1044M304 1044L395.5 1055M395.5 1055H580.5M580.5 1055H728M728 1055L807.5 1093M807.5 1093L917.5 1044M917.5 1044L1046.5 1055M1046.5 1055L1243 1072M1243 1072L1343 1044M1343 1044H1471M1471 1044L1484 945.5M1484 945.5L1461.5 798.5M1461.5 798.5L1509 677.5L1471 567M1471 567L1526 526.5L1509 428M1509 428L1448.5 325M1448.5 325L1471 204.5M1471 204.5V143.5M1471 143.5L1509 69M1509 69L1526 -19.5L1461.5 -86M1461.5 -86L1358.5 -38.5M1358.5 -38.5L1223 -50M1223 -50L1155 -38.5M1155 -38.5L1073.5 -63L992 -38.5M992 -38.5H829.5M829.5 -38.5L712.5 -29M712.5 -29L534.5 -19.5M534.5 -19.5H395.5M395.5 -19.5H260M260 -19.5H156.5M156.5 -19.5L39.5 -29" stroke="#160054" stroke-opacity="0.65"/>
</g>
<defs>
<clipPath id="clip0_1_2">
<rect width="1440" height="1024" fill="white"/>
</clipPath>
</defs>
</svg>
