<svg width="200" height="200" viewBox="0 0 200 200" fill="none" xmlns="http://www.w3.org/2000/svg">
<path d="M169.308 36.7966C156.561 30.9476 142.892 26.6383 128.599 24.1702C128.339 24.1226 128.079 24.2416 127.945 24.4797C126.187 27.6065 124.239 31.6857 122.876 34.8919C107.503 32.5904 92.2099 32.5904 77.1527 34.8919C75.7887 31.6144 73.7707 27.6065 72.0048 24.4797C71.8707 24.2496 71.6107 24.1305 71.3504 24.1702C57.0659 26.6304 43.3963 30.9397 30.6411 36.7966C30.5307 36.8442 30.4361 36.9237 30.3732 37.0268C4.44493 75.7631 -2.65792 113.547 0.826501 150.863C0.842267 151.046 0.944749 151.22 1.08665 151.331C18.1934 163.894 34.7642 171.521 51.0273 176.576C51.2876 176.656 51.5634 176.56 51.729 176.346C55.5761 171.092 59.0054 165.553 61.9456 159.728C62.1192 159.386 61.9535 158.982 61.5989 158.847C56.1594 156.783 50.98 154.268 45.9977 151.411C45.6037 151.181 45.5721 150.617 45.9347 150.347C46.9831 149.561 48.0318 148.744 49.033 147.919C49.2141 147.768 49.4665 147.736 49.6794 147.831C82.4107 162.775 117.846 162.775 150.191 147.831C150.404 147.728 150.657 147.76 150.846 147.911C151.847 148.736 152.895 149.561 153.952 150.347C154.314 150.617 154.291 151.181 153.897 151.411C148.914 154.323 143.735 156.783 138.288 158.839C137.933 158.974 137.775 159.386 137.949 159.728C140.952 165.545 144.381 171.084 148.157 176.338C148.315 176.56 148.599 176.656 148.859 176.576C165.201 171.521 181.772 163.894 198.879 151.331C199.028 151.22 199.123 151.054 199.139 150.871C203.309 107.73 192.154 70.2555 169.568 37.0347C169.513 36.9237 169.419 36.8442 169.308 36.7966ZM66.8335 128.142C56.9792 128.142 48.8594 119.095 48.8594 107.984C48.8594 96.8733 56.8217 87.8262 66.8335 87.8262C76.9239 87.8262 84.9651 96.9527 84.8073 107.984C84.8073 119.095 76.8451 128.142 66.8335 128.142ZM133.29 128.142C123.435 128.142 115.316 119.095 115.316 107.984C115.316 96.8733 123.278 87.8262 133.29 87.8262C143.38 87.8262 151.421 96.9527 151.264 107.984C151.264 119.095 143.38 128.142 133.29 128.142Z" fill="black"/>
</svg>
