<svg width="200" height="200" viewBox="0 0 200 200" fill="none" xmlns="http://www.w3.org/2000/svg">
<path d="M16.4444 162.571L68.6667 100M183.556 162.571L131.333 100M6 58.2857L81.4611 108.516C88.1612 112.976 91.5108 115.207 95.1318 116.073C98.332 116.839 101.668 116.839 104.868 116.073C108.489 115.207 111.839 112.976 118.539 108.516L194 58.2857M39.4222 173H160.578C172.277 173 178.127 173 182.595 170.727C186.525 168.727 189.721 165.536 191.723 161.612C194 157.151 194 151.31 194 139.629V60.3714C194 48.6904 194 42.8498 191.723 38.3882C189.721 34.4636 186.525 31.2729 182.595 29.2733C178.127 27 172.277 27 160.578 27H39.4222C27.7234 27 21.8739 27 17.4055 29.2733C13.475 31.2729 10.2794 34.4636 8.27678 38.3882C6 42.8498 6 48.6903 6 60.3714V139.629C6 151.31 6 157.151 8.27678 161.612C10.2794 165.536 13.475 168.727 17.4055 170.727C21.8739 173 27.7233 173 39.4222 173Z" stroke="black" stroke-width="10" stroke-linecap="round" stroke-linejoin="round"/>
</svg>
