<svg width="200" height="200" viewBox="0 0 200 200" fill="none" xmlns="http://www.w3.org/2000/svg">
<path d="M117.962 143.62L131.025 130.556C133.036 128.522 135.43 126.905 138.068 125.803C140.707 124.701 143.537 124.135 146.397 124.135C149.257 124.135 152.087 124.701 154.726 125.803C157.364 126.905 159.758 128.522 161.768 130.556L177.09 145.879C179.124 147.889 180.739 150.28 181.841 152.919C182.943 155.557 183.511 158.39 183.511 161.249C183.511 164.109 182.943 166.941 181.841 169.58C180.739 172.218 179.124 174.61 177.09 176.619L170.116 183.691C165.311 188.543 159.097 191.755 152.359 192.865C145.622 193.976 138.705 192.932 132.597 189.88C80.0338 162.822 37.2205 120.042 10.1198 67.5012C7.06452 61.3864 6.02714 54.4602 7.15665 47.7186C8.28615 40.977 11.5244 34.7665 16.4059 29.9814L23.379 22.91C27.4641 18.8495 32.9902 16.57 38.75 16.57C44.5099 16.57 50.0359 18.8495 54.1211 22.91L69.5414 38.3308C73.6019 42.4161 75.8811 47.9414 75.8811 53.7014C75.8811 59.4612 73.6019 64.9866 69.5414 69.0718L56.4782 82.1356C65.1156 93.8188 74.603 104.848 84.8631 115.135C95.064 125.354 106.031 134.778 117.668 143.325L117.962 143.62Z" stroke="black" stroke-width="10" stroke-linecap="round" stroke-linejoin="round"/>
<path d="M156.072 73.8844C154.568 66.5837 150.986 59.874 145.759 54.5598C140.533 49.2455 133.882 45.5526 126.607 43.9276" stroke="black" stroke-width="10" stroke-linecap="round" stroke-linejoin="round"/>
<path d="M193.288 60.8207C189.637 47.9466 182.759 36.2199 173.305 26.7491C163.852 17.2781 152.135 10.3768 139.268 6.70264" stroke="black" stroke-width="10" stroke-linecap="round" stroke-linejoin="round"/>
</svg>
