<svg width="200" height="200" viewBox="0 0 200 200" fill="none" xmlns="http://www.w3.org/2000/svg">
<path fill-rule="evenodd" clip-rule="evenodd" d="M178.139 33.9796C186.744 36.2864 193.52 43.0835 195.82 51.7151C200 67.3593 200 100 200 100C200 100 200 132.64 195.82 148.286C193.52 156.917 186.744 163.713 178.139 166.021C162.542 170.213 100 170.213 100 170.213C100 170.213 37.4583 170.213 21.8612 166.021C13.2564 163.713 6.47905 156.917 4.17924 148.286C0 132.64 0 100 0 100C0 100 0 67.3593 4.17924 51.7151C6.47905 43.0835 13.2564 36.2864 21.8612 33.9796C37.4583 29.7872 100 29.7872 100 29.7872C100 29.7872 162.542 29.7872 178.139 33.9796ZM131.818 100.001L79.5455 129.635V70.3648L131.818 100.001Z" fill="black"/>
</svg>
