<svg width="400" height="400" viewBox="0 0 400 400" xmlns="http://www.w3.org/2000/svg">
<g id="contacts" clip-path="url(#clip0_1_2)">
<g id="floor">
<path id="Floor_15_" d="M200 382.04C310.657 382.04 400.361 329.231 400.361 264.086C400.361 198.942 310.657 146.132 200 146.132C89.3434 146.132 -0.361435 198.942 -0.361435 264.086C-0.361435 329.231 89.3434 382.04 200 382.04Z" fill="#E7E7EE"/>
</g>
<g id="shadows">
<path id="shadowsMailBox" d="M60.0583 264.186C71.652 270.894 71.652 281.772 60.0583 288.481C48.4646 295.19 29.6673 295.19 18.0735 288.481C6.47982 281.773 6.47982 270.895 18.0735 264.186C29.6673 257.478 48.4646 257.478 60.0583 264.186Z" fill="#DCDCDC"/>
<path id="shadowsLaptop" d="M85.5031 279.604L190.673 340.46C192.817 341.702 196.295 341.702 198.439 340.46L376.47 237.444C378.614 236.202 378.614 234.191 376.47 232.949L271.3 172.093C269.155 170.852 265.678 170.852 263.534 172.093L85.5031 275.11C83.3587 276.351 83.3587 278.363 85.5031 279.604Z" fill="#DCDCDC"/>
</g>
<g id="laptop">
<path id="XMLID_611_" d="M89.0987 268.42C89.0987 271.08 91.0852 274.385 93.5354 275.802L190.118 331.701C192.569 333.118 196.541 333.118 198.991 331.701L369.062 233.289C371.512 231.871 373.498 228.565 373.499 225.906C373.499 223.246 371.513 219.94 369.063 218.522L272.48 162.624C270.03 161.206 266.057 161.206 263.608 162.624L93.5336 261.036C91.0843 262.454 89.0978 265.76 89.0987 268.42Z" fill="#37474F"/>
<path id="XMLID_5480_" d="M93.5336 266.171L190.117 322.069C192.568 323.487 196.54 323.487 198.99 322.069L369.062 223.658C371.512 222.24 371.512 219.942 369.062 218.524L272.479 162.626C270.029 161.208 266.056 161.208 263.607 162.626L93.5336 261.036C91.0843 262.454 91.0843 264.753 93.5336 266.171Z" fill="#455A64"/>
<path id="XMLID_5466_" d="M194.556 323.141V332.761C192.948 332.761 191.339 332.413 190.12 331.703L93.5336 275.802C91.0852 274.386 89.0978 271.079 89.0978 268.42C89.0978 265.925 90.8493 262.865 93.0834 261.325C91.096 262.752 91.2493 264.847 93.5345 266.172L190.121 322.073C191.339 322.781 192.947 323.141 194.556 323.141Z" fill="#263238"/>
<path id="XMLID_609_" d="M84.9372 261.196C82.6395 259.865 82.7641 257.62 82.7641 254.785L82.7632 121.08C82.7632 118.245 84.7498 114.797 87.1991 113.379L257.27 14.9674C259.72 13.5499 263.569 13.4789 265.868 14.8083C268.167 16.1386 268.042 18.384 268.042 21.2191V154.924C268.042 157.759 266.056 161.207 263.606 162.625L93.5336 261.037C91.0843 262.454 87.235 262.526 84.9372 261.196Z" fill="#37474F"/>
<path id="XMLID_608_" d="M268.044 21.2162C268.044 18.3865 266.056 17.2387 263.606 18.6499L93.5318 117.065C92.3076 117.774 91.1937 118.994 90.3982 120.389L84.0673 116.698H84.0592C84.8628 115.303 85.9758 114.084 87.2009 113.374L257.267 14.9663C259.717 13.5479 263.566 13.476 265.865 14.8072C268.163 16.1384 268.044 18.3865 268.044 21.2162Z" fill="#455A64"/>
<path id="XMLID_606_" d="M93.0099 261.305C90.5614 262.455 87.078 262.435 84.9372 261.192C82.6422 259.867 82.7659 257.621 82.7659 254.787V121.076C82.7659 119.659 83.2574 118.088 84.0673 116.702L90.3982 120.377V120.387C89.5991 121.783 89.0969 123.344 89.0969 124.76V258.471C89.0969 261.099 90.8081 262.28 93.0099 261.305Z" fill="#263238"/>
<path id="laptopScreen" d="M95.9202 122.192L259.891 27.3357C261.361 26.4854 262.553 27.1748 262.553 28.8764V145.593C262.553 147.294 261.361 149.363 259.891 150.213L95.9202 245.068C94.4502 245.918 93.2583 245.229 93.2583 243.528V126.813C93.2583 125.112 94.4502 123.043 95.9202 122.192Z" fill="#E7E7EE"/>
<path id="XMLID_604_" d="M105.811 261.299L263.674 169.953C264.9 169.244 266.885 169.244 268.11 169.953L270.739 171.4C271.964 172.11 271.964 173.258 270.739 173.967L112.851 265.299C111.626 266.008 109.639 266.007 108.414 265.299L105.81 263.866C104.586 263.158 104.586 262.008 105.811 261.299Z" fill="#263238"/>
<g id="XMLID_269_">
<path id="XMLID_603_" d="M118.192 268.679L276.054 177.331C277.279 176.622 279.093 176.523 280.107 177.11L321.196 200.887C322.21 201.473 322.039 202.523 320.813 203.232L163.135 294.456C161.91 295.164 160.093 295.267 159.077 294.684L117.813 271.018C116.798 270.434 116.967 269.387 118.192 268.679Z" fill="#263238"/>
<path id="XMLID_270_" d="M254.981 215.699L259.924 212.84C260.134 212.718 260.152 212.531 259.967 212.423L255.238 209.687C255.051 209.579 254.729 209.59 254.519 209.712L249.577 212.573C249.367 212.694 249.348 212.88 249.535 212.988L254.263 215.724C254.45 215.831 254.771 215.819 254.981 215.699ZM247.765 205.802L242.822 208.662C242.613 208.784 242.594 208.97 242.78 209.078L247.509 211.814C247.695 211.922 248.017 211.91 248.226 211.79L253.169 208.929C253.378 208.808 253.398 208.622 253.212 208.514L248.483 205.778C248.296 205.67 247.975 205.681 247.765 205.802ZM231.796 215.043L223.431 219.883C223.222 220.004 223.203 220.191 223.389 220.298L228.118 223.035C228.305 223.142 228.627 223.132 228.837 223.01L237.201 218.171C237.411 218.049 237.43 217.863 237.243 217.755L232.515 215.019C232.327 214.91 232.006 214.921 231.796 215.043ZM240.541 209.982L235.598 212.842C235.389 212.964 235.369 213.15 235.556 213.258L240.285 215.994C240.472 216.102 240.793 216.091 241.003 215.969L245.945 213.109C246.155 212.988 246.175 212.802 245.988 212.694L241.259 209.958C241.073 209.85 240.751 209.861 240.541 209.982ZM221.151 221.203L216.208 224.063C215.998 224.184 215.979 224.37 216.165 224.478L220.894 227.214C221.081 227.322 221.402 227.311 221.612 227.19L226.554 224.33C226.764 224.209 226.783 224.022 226.596 223.915L221.868 221.178C221.682 221.071 221.361 221.081 221.151 221.203ZM213.926 225.382L208.984 228.243C208.774 228.364 208.755 228.55 208.942 228.658L213.671 231.394C213.857 231.502 214.178 231.491 214.389 231.37L219.332 228.51C219.542 228.388 219.561 228.202 219.374 228.094L214.646 225.358C214.458 225.25 214.136 225.261 213.926 225.382ZM232.461 236.547L237.404 233.687C237.613 233.566 237.632 233.38 237.446 233.272L232.717 230.536C232.531 230.428 232.209 230.439 232 230.56L227.057 233.42C226.848 233.542 226.828 233.728 227.014 233.836L231.744 236.572C231.929 236.68 232.251 236.669 232.461 236.547ZM225.237 240.728L230.179 237.869C230.389 237.747 230.408 237.561 230.222 237.453L225.493 234.716C225.307 234.609 224.986 234.619 224.775 234.741L219.832 237.601C219.622 237.722 219.604 237.908 219.789 238.016L224.518 240.752C224.706 240.86 225.027 240.849 225.237 240.728ZM218.013 244.908L222.956 242.048C223.166 241.926 223.185 241.74 222.998 241.632L218.27 238.896C218.083 238.788 217.761 238.799 217.552 238.92L212.609 241.781C212.399 241.902 212.38 242.088 212.567 242.196L217.295 244.932C217.482 245.041 217.803 245.029 218.013 244.908ZM210.789 249.088L215.732 246.227C215.942 246.106 215.961 245.92 215.774 245.812L211.046 243.076C210.859 242.968 210.538 242.979 210.328 243.1L205.386 245.96C205.176 246.082 205.157 246.268 205.343 246.376L210.072 249.112C210.257 249.221 210.579 249.21 210.789 249.088ZM247.758 219.879L252.7 217.018C252.91 216.897 252.929 216.711 252.743 216.603L248.013 213.867C247.827 213.759 247.506 213.771 247.296 213.891L242.353 216.751C242.144 216.873 242.124 217.059 242.31 217.167L247.039 219.903C247.226 220.012 247.548 220 247.758 219.879ZM239.685 232.368L250.711 225.987C250.921 225.865 250.94 225.68 250.753 225.572L239.27 218.927C239.083 218.819 238.762 218.83 238.552 218.951L232.848 222.251C232.639 222.372 232.62 222.558 232.805 222.667L238.885 226.185C239.072 226.293 239.052 226.479 238.842 226.6L234.28 229.24C234.07 229.362 234.05 229.548 234.238 229.656L238.967 232.392C239.153 232.5 239.475 232.489 239.685 232.368ZM206.703 229.562L201.761 232.422C201.551 232.544 201.532 232.73 201.718 232.838L206.447 235.574C206.633 235.682 206.954 235.671 207.165 235.55L212.108 232.69C212.317 232.569 212.336 232.383 212.15 232.275L207.422 229.539C207.234 229.43 206.913 229.442 206.703 229.562ZM199.479 233.743L194.536 236.602C194.326 236.724 194.308 236.91 194.494 237.018L199.222 239.754C199.409 239.862 199.731 239.851 199.941 239.729L204.883 236.869C205.093 236.748 205.112 236.562 204.926 236.454L200.196 233.718C200.01 233.611 199.689 233.622 199.479 233.743ZM159.504 278.374C159.691 278.482 160.012 278.47 160.222 278.349L165.165 275.489C165.375 275.367 165.394 275.181 165.207 275.073L160.479 272.337C160.292 272.229 159.97 272.24 159.761 272.361L154.818 275.222C154.608 275.343 154.589 275.529 154.775 275.637L159.504 278.374ZM141.687 267.184L136.744 270.044C136.535 270.165 136.516 270.351 136.702 270.459L141.43 273.195C141.617 273.303 141.938 273.292 142.149 273.17L147.091 270.31C147.301 270.189 147.32 270.003 147.134 269.895L142.405 267.159C142.219 267.052 141.898 267.062 141.687 267.184ZM150.848 275.565C151.034 275.673 151.356 275.662 151.565 275.541L156.509 272.68C156.718 272.559 156.737 272.373 156.551 272.265L151.822 269.529C151.636 269.421 151.315 269.432 151.105 269.553L146.162 272.413C145.952 272.535 145.933 272.721 146.12 272.829L150.848 275.565ZM170.779 280.058L175.722 277.197C175.932 277.076 175.952 276.89 175.765 276.782L171.036 274.046C170.849 273.938 170.528 273.949 170.317 274.071L165.375 276.931C165.165 277.053 165.146 277.239 165.333 277.347L170.061 280.083C170.248 280.19 170.57 280.18 170.779 280.058ZM162.838 284.262C163.024 284.37 163.345 284.36 163.555 284.238L168.498 281.378C168.708 281.257 168.726 281.071 168.541 280.963L163.812 278.227C163.625 278.119 163.304 278.129 163.094 278.251L158.152 281.111C157.942 281.232 157.923 281.418 158.109 281.526L162.838 284.262ZM148.911 263.004L143.969 265.864C143.759 265.986 143.74 266.172 143.926 266.28L148.655 269.016C148.841 269.124 149.162 269.113 149.372 268.991L154.315 266.131C154.525 266.01 154.543 265.824 154.357 265.716L149.629 262.98C149.443 262.871 149.121 262.883 148.911 263.004ZM185.03 242.103L180.088 244.964C179.878 245.085 179.859 245.271 180.046 245.379L184.774 248.115C184.961 248.223 185.282 248.212 185.492 248.091L190.435 245.231C190.645 245.109 190.664 244.923 190.477 244.815L185.748 242.079C185.562 241.97 185.24 241.982 185.03 242.103ZM156.135 258.824L151.193 261.684C150.983 261.806 150.964 261.992 151.151 262.1L155.879 264.836C156.065 264.944 156.387 264.933 156.597 264.812L161.54 261.951C161.75 261.83 161.769 261.644 161.582 261.536L156.854 258.8C156.666 258.691 156.345 258.702 156.135 258.824ZM192.255 237.923L187.312 240.783C187.102 240.904 187.083 241.09 187.27 241.198L191.998 243.934C192.185 244.042 192.506 244.031 192.717 243.91L197.659 241.051C197.869 240.929 197.888 240.743 197.702 240.636L192.973 237.899C192.787 237.791 192.465 237.801 192.255 237.923ZM177.807 246.283L172.865 249.143C172.655 249.265 172.635 249.451 172.822 249.559L177.551 252.295C177.737 252.403 178.058 252.392 178.269 252.271L183.212 249.41C183.422 249.289 183.441 249.103 183.255 248.995L178.526 246.259C178.339 246.151 178.017 246.162 177.807 246.283ZM170.583 250.464L165.64 253.324C165.43 253.445 165.411 253.631 165.597 253.739L170.326 256.476C170.513 256.583 170.834 256.573 171.045 256.451L175.987 253.592C176.197 253.471 176.216 253.284 176.03 253.176L171.301 250.44C171.115 250.331 170.793 250.342 170.583 250.464ZM163.36 254.644L158.417 257.504C158.207 257.625 158.188 257.811 158.374 257.919L163.103 260.655C163.29 260.763 163.611 260.752 163.821 260.631L168.763 257.771C168.973 257.649 168.992 257.463 168.805 257.356L164.077 254.619C163.891 254.511 163.569 254.522 163.36 254.644ZM196.341 257.448L201.283 254.588C201.493 254.467 201.513 254.28 201.326 254.173L196.597 251.436C196.411 251.329 196.09 251.339 195.88 251.462L190.937 254.321C190.727 254.443 190.709 254.628 190.895 254.737L195.623 257.473C195.81 257.581 196.131 257.569 196.341 257.448ZM263.734 196.562L258.791 199.422C258.581 199.543 258.562 199.729 258.748 199.837L263.477 202.573C263.664 202.681 263.985 202.671 264.196 202.549L269.138 199.689C269.348 199.568 269.367 199.382 269.18 199.274L264.452 196.538C264.265 196.43 263.943 196.44 263.734 196.562ZM254.989 201.622L250.047 204.483C249.837 204.604 249.818 204.79 250.004 204.898L254.733 207.634C254.919 207.742 255.241 207.731 255.451 207.61L260.394 204.75C260.604 204.628 260.622 204.442 260.437 204.334L255.708 201.598C255.52 201.489 255.199 201.501 254.989 201.622ZM270.957 192.382L266.014 195.241C265.804 195.363 265.786 195.549 265.971 195.658L270.7 198.394C270.887 198.502 271.208 198.491 271.418 198.369L276.361 195.509C276.57 195.388 276.59 195.202 276.404 195.094L271.675 192.358C271.489 192.25 271.168 192.261 270.957 192.382ZM231.029 229.559L235.971 226.698C236.181 226.576 236.2 226.391 236.013 226.282L231.285 223.546C231.099 223.438 230.777 223.449 230.567 223.57L225.624 226.431C225.414 226.552 225.396 226.738 225.581 226.846L230.31 229.582C230.497 229.691 230.819 229.68 231.029 229.559ZM278.9 188.177C278.713 188.069 278.391 188.08 278.181 188.201L273.239 191.062C273.03 191.183 273.01 191.369 273.196 191.477L277.926 194.213C278.112 194.321 278.433 194.31 278.643 194.189L283.586 191.329C283.796 191.207 283.815 191.021 283.629 190.913L278.9 188.177ZM203.565 253.268L208.508 250.408C208.717 250.287 208.736 250.101 208.55 249.993L203.822 247.257C203.635 247.149 203.314 247.16 203.104 247.281L198.161 250.141C197.952 250.262 197.933 250.449 198.119 250.556L202.848 253.293C203.034 253.4 203.355 253.39 203.565 253.268ZM292.153 202.006L297.096 199.147C297.306 199.026 297.325 198.84 297.138 198.731L292.409 195.995C292.222 195.887 291.901 195.898 291.691 196.019L286.748 198.879C286.538 199 286.519 199.187 286.706 199.294L291.434 202.031C291.622 202.139 291.944 202.129 292.153 202.006ZM278.174 202.279L283.117 199.418C283.326 199.297 283.345 199.112 283.159 199.003L278.43 196.267C278.244 196.159 277.922 196.17 277.712 196.291L272.77 199.151C272.56 199.274 272.54 199.459 272.726 199.567L277.456 202.303C277.642 202.411 277.964 202.4 278.174 202.279ZM285.655 192.086C285.468 191.978 285.147 191.989 284.937 192.111L279.995 194.971C279.786 195.092 279.766 195.278 279.952 195.386L284.682 198.122C284.868 198.23 285.189 198.219 285.399 198.098L290.342 195.238C290.552 195.116 290.571 194.93 290.385 194.822L285.655 192.086ZM287.176 191.206L298.659 197.852C298.846 197.96 299.167 197.949 299.377 197.827L304.319 194.967C304.529 194.846 304.548 194.66 304.362 194.552L292.878 187.907C292.691 187.799 292.37 187.809 292.16 187.931L287.217 190.791C287.008 190.912 286.988 191.098 287.176 191.206ZM270.489 200.471L265.546 203.33C265.336 203.452 265.317 203.638 265.503 203.746L270.232 206.482C270.419 206.59 270.74 206.579 270.951 206.458L275.893 203.597C276.103 203.475 276.122 203.29 275.935 203.182L271.207 200.446C271.021 200.339 270.699 200.35 270.489 200.471ZM216.119 231.932L211.177 234.792C210.967 234.913 210.948 235.099 211.135 235.207L215.863 237.943C216.049 238.051 216.37 238.04 216.58 237.919L221.523 235.059C221.733 234.938 221.752 234.751 221.565 234.644L216.837 231.907C216.65 231.799 216.329 231.81 216.119 231.932ZM284.212 206.211C284.397 206.319 284.719 206.308 284.93 206.187L289.873 203.327C290.083 203.204 290.101 203.019 289.915 202.911L285.186 200.175C285 200.067 284.678 200.078 284.468 200.2L279.526 203.06C279.316 203.181 279.296 203.367 279.483 203.475L284.212 206.211ZM223.344 227.752L218.401 230.612C218.191 230.733 218.172 230.92 218.359 231.027L223.087 233.764C223.274 233.871 223.595 233.861 223.804 233.739L228.747 230.879C228.957 230.758 228.976 230.572 228.789 230.464L224.061 227.728C223.874 227.619 223.553 227.631 223.344 227.752ZM166.727 274.193C166.914 274.301 167.236 274.29 167.446 274.169L172.388 271.309C172.597 271.187 172.617 271.001 172.43 270.893L167.701 268.157C167.515 268.049 167.194 268.06 166.984 268.182L162.041 271.042C161.831 271.163 161.813 271.349 161.998 271.457L166.727 274.193ZM158.328 265.373L153.386 268.233C153.176 268.354 153.157 268.54 153.343 268.648L158.072 271.384C158.258 271.492 158.579 271.481 158.789 271.36L163.732 268.501C163.942 268.379 163.961 268.193 163.774 268.085L159.046 265.349C158.859 265.24 158.538 265.251 158.328 265.373ZM174.669 269.988L179.612 267.128C179.822 267.007 179.841 266.821 179.655 266.713L174.926 263.977C174.739 263.869 174.418 263.88 174.207 264.001L169.265 266.861C169.055 266.982 169.036 267.169 169.222 267.276L173.952 270.013C174.138 270.12 174.46 270.111 174.669 269.988ZM181.893 265.809L186.836 262.948C187.046 262.826 187.065 262.641 186.879 262.533L182.15 259.797C181.964 259.689 181.642 259.7 181.431 259.821L176.489 262.681C176.279 262.803 176.259 262.989 176.447 263.097L181.176 265.833C181.361 265.941 181.683 265.93 181.893 265.809ZM189.117 261.628L194.06 258.769C194.27 258.646 194.289 258.461 194.103 258.352L189.374 255.616C189.187 255.508 188.866 255.519 188.656 255.641L183.713 258.501C183.503 258.622 183.484 258.808 183.671 258.916L188.399 261.652C188.586 261.761 188.908 261.75 189.117 261.628ZM165.552 261.193L160.609 264.052C160.399 264.173 160.38 264.36 160.566 264.467L165.295 267.204C165.482 267.311 165.803 267.301 166.013 267.179L170.956 264.319C171.166 264.198 171.185 264.012 170.998 263.904L166.269 261.168C166.083 261.061 165.761 261.071 165.552 261.193ZM172.776 257.012L167.833 259.872C167.623 259.994 167.604 260.18 167.79 260.288L172.519 263.024C172.706 263.132 173.027 263.121 173.237 263L178.179 260.139C178.389 260.018 178.408 259.832 178.222 259.724L173.493 256.988C173.308 256.88 172.986 256.891 172.776 257.012ZM201.672 240.292L196.729 243.151C196.519 243.274 196.5 243.459 196.687 243.567L201.415 246.303C201.602 246.411 201.923 246.4 202.134 246.279L207.076 243.419C207.286 243.298 207.305 243.112 207.119 243.003L202.39 240.267C202.203 240.16 201.882 240.171 201.672 240.292ZM194.448 244.472L189.505 247.332C189.295 247.453 189.276 247.64 189.463 247.747L194.191 250.484C194.378 250.591 194.7 250.581 194.909 250.459L199.852 247.6C200.062 247.478 200.082 247.293 199.895 247.184L195.166 244.448C194.978 244.34 194.657 244.351 194.448 244.472ZM208.895 236.111L203.952 238.972C203.743 239.093 203.724 239.279 203.91 239.387L208.639 242.123C208.825 242.231 209.146 242.22 209.357 242.099L214.3 239.239C214.509 239.117 214.528 238.931 214.342 238.823L209.613 236.087C209.427 235.979 209.105 235.991 208.895 236.111ZM180 252.832L175.057 255.693C174.848 255.814 174.828 256 175.014 256.108L179.743 258.844C179.93 258.952 180.251 258.941 180.462 258.82L185.404 255.96C185.614 255.837 185.633 255.652 185.447 255.544L180.717 252.808C180.531 252.7 180.21 252.711 180 252.832ZM187.223 248.653L182.281 251.513C182.071 251.634 182.052 251.82 182.239 251.928L186.968 254.664C187.153 254.772 187.475 254.761 187.685 254.64L192.628 251.78C192.838 251.658 192.857 251.472 192.671 251.365L187.942 248.628C187.755 248.52 187.433 248.531 187.223 248.653ZM178.003 275.878L182.945 273.018C183.155 272.896 183.174 272.71 182.988 272.602L178.259 269.866C178.073 269.758 177.752 269.769 177.541 269.89L172.598 272.751C172.388 272.872 172.369 273.058 172.556 273.166L177.284 275.902C177.472 276.01 177.793 275.999 178.003 275.878ZM139.91 274.076L135.181 271.339C134.995 271.231 134.674 271.242 134.463 271.364L129.52 274.224C129.31 274.345 129.291 274.531 129.478 274.639L134.206 277.375C134.394 277.483 134.715 277.472 134.925 277.35L139.867 274.491C140.078 274.369 140.096 274.183 139.91 274.076ZM149.326 276.444L144.598 273.708C144.412 273.6 144.091 273.611 143.881 273.732L136.276 278.132C136.066 278.253 136.048 278.44 136.234 278.547L140.962 281.284C141.149 281.391 141.47 281.381 141.68 281.259L149.284 276.859C149.494 276.738 149.513 276.552 149.326 276.444ZM132.852 268.671L128.124 265.935C127.937 265.827 127.616 265.838 127.406 265.96L121.323 269.48C121.113 269.601 121.094 269.787 121.281 269.895L126.009 272.631C126.196 272.739 126.517 272.728 126.727 272.607L132.811 269.087C133.02 268.965 133.039 268.779 132.852 268.671ZM137.517 265.973C137.702 266.081 138.024 266.07 138.234 265.949L143.177 263.089C143.387 262.967 143.406 262.781 143.22 262.673L138.491 259.937C138.304 259.829 137.983 259.84 137.772 259.961L132.83 262.822C132.62 262.944 132.6 263.129 132.787 263.237L137.517 265.973ZM157.983 279.253L153.255 276.517C153.068 276.409 152.747 276.421 152.536 276.542L143.031 282.041C142.822 282.164 142.803 282.349 142.989 282.457L147.717 285.193C147.904 285.301 148.225 285.29 148.436 285.169L157.941 279.668C158.151 279.547 158.17 279.362 157.983 279.253ZM161.317 285.142L156.587 282.406C156.402 282.298 156.08 282.309 155.87 282.431L149.787 285.951C149.577 286.072 149.558 286.259 149.744 286.366L154.473 289.102C154.659 289.21 154.98 289.199 155.191 289.078L161.274 285.558C161.483 285.436 161.502 285.25 161.317 285.142ZM191.227 234.893C191.413 235.001 191.735 234.991 191.944 234.869L196.887 232.009C197.097 231.888 197.117 231.702 196.93 231.594L192.202 228.858C192.015 228.75 191.693 228.76 191.483 228.882L186.541 231.742C186.331 231.863 186.311 232.049 186.498 232.157L191.227 234.893ZM176.778 243.254C176.965 243.362 177.287 243.351 177.497 243.23L182.439 240.369C182.649 240.248 182.668 240.062 182.482 239.954L177.753 237.218C177.567 237.11 177.246 237.121 177.036 237.242L172.093 240.102C171.883 240.223 171.865 240.409 172.05 240.517L176.778 243.254ZM144.74 261.792C144.926 261.9 145.248 261.889 145.458 261.768L150.401 258.908C150.611 258.787 150.63 258.6 150.444 258.493L145.716 255.756C145.529 255.649 145.208 255.659 144.997 255.782L140.055 258.642C139.845 258.763 139.826 258.949 140.013 259.057L144.74 261.792ZM184.003 239.073C184.189 239.181 184.51 239.17 184.72 239.049L189.663 236.189C189.873 236.067 189.891 235.881 189.705 235.773L184.977 233.037C184.79 232.929 184.469 232.94 184.258 233.062L179.316 235.923C179.106 236.044 179.087 236.23 179.273 236.338L184.003 239.073ZM169.554 247.434C169.741 247.542 170.063 247.531 170.273 247.409L175.215 244.549C175.425 244.428 175.445 244.242 175.257 244.133L170.529 241.397C170.343 241.289 170.021 241.3 169.811 241.421L164.868 244.281C164.658 244.403 164.639 244.589 164.826 244.697L169.554 247.434ZM164.864 285.436C164.677 285.328 164.356 285.338 164.145 285.46L156.541 289.86C156.331 289.981 156.312 290.167 156.499 290.275L161.228 293.011C161.414 293.119 161.735 293.108 161.945 292.987L169.55 288.587C169.76 288.466 169.778 288.28 169.592 288.172L164.864 285.436ZM159.187 253.433C159.374 253.541 159.695 253.53 159.906 253.409L164.848 250.548C165.058 250.427 165.077 250.241 164.891 250.133L160.162 247.397C159.976 247.289 159.654 247.301 159.444 247.422L154.501 250.282C154.291 250.404 154.273 250.59 154.459 250.698L159.187 253.433ZM151.963 257.613C152.15 257.72 152.471 257.71 152.681 257.588L157.623 254.728C157.833 254.607 157.852 254.421 157.666 254.313L152.937 251.577C152.751 251.469 152.43 251.48 152.219 251.601L147.276 254.461C147.066 254.582 147.048 254.769 147.234 254.876L151.963 257.613ZM298.696 207.993C298.509 207.885 298.188 207.896 297.978 208.017L285.812 215.057C285.602 215.178 285.582 215.364 285.769 215.473L290.498 218.209C290.683 218.317 291.005 218.307 291.216 218.185L303.382 211.145C303.592 211.024 303.611 210.838 303.424 210.73L298.696 207.993ZM282.727 217.233C282.541 217.125 282.22 217.136 282.009 217.258L277.066 220.117C276.856 220.238 276.838 220.424 277.024 220.532L281.752 223.268C281.939 223.376 282.26 223.365 282.471 223.243L287.413 220.383C287.623 220.262 287.642 220.075 287.456 219.968L282.727 217.233ZM185.227 271.697L190.17 268.837C190.379 268.715 190.398 268.529 190.212 268.422L185.483 265.685C185.297 265.578 184.976 265.588 184.765 265.71L179.822 268.57C179.613 268.691 179.594 268.877 179.78 268.985L184.509 271.721C184.695 271.83 185.017 271.818 185.227 271.697ZM268.28 225.594C268.093 225.486 267.771 225.497 267.561 225.618L262.619 228.478C262.409 228.6 262.39 228.786 262.577 228.893L267.305 231.63C267.492 231.738 267.813 231.727 268.022 231.605L272.965 228.745C273.175 228.624 273.194 228.438 273.008 228.33L268.28 225.594ZM305.92 203.813C305.734 203.705 305.412 203.716 305.202 203.837L300.259 206.698C300.049 206.819 300.031 207.005 300.217 207.113L304.945 209.849C305.132 209.957 305.454 209.946 305.664 209.825L310.606 206.964C310.816 206.843 310.835 206.657 310.649 206.549L305.92 203.813ZM317.873 202.369L306.388 195.724C306.202 195.616 305.881 195.627 305.671 195.748L300.728 198.609C300.518 198.73 300.5 198.916 300.686 199.024L312.17 205.669C312.356 205.777 312.677 205.766 312.887 205.645L317.83 202.785C318.04 202.663 318.059 202.476 317.873 202.369ZM241.285 241.213C241.099 241.106 240.777 241.116 240.568 241.238L234.484 244.758C234.274 244.879 234.256 245.065 234.442 245.173L239.17 247.909C239.357 248.017 239.678 248.006 239.889 247.885L245.972 244.365C246.182 244.244 246.202 244.058 246.014 243.95L241.285 241.213ZM259.535 230.653C259.349 230.546 259.028 230.556 258.817 230.678L251.213 235.078C251.003 235.199 250.984 235.385 251.17 235.493L255.9 238.229C256.086 238.337 256.407 238.326 256.618 238.205L264.222 233.805C264.432 233.684 264.451 233.498 264.265 233.39L259.535 230.653ZM224.556 250.894C224.37 250.787 224.048 250.797 223.838 250.919L183.156 274.459C182.946 274.581 182.926 274.767 183.113 274.875L187.842 277.611C188.029 277.719 188.35 277.708 188.561 277.587L229.242 254.046C229.452 253.924 229.471 253.738 229.284 253.631L224.556 250.894ZM181.593 275.755C181.406 275.647 181.084 275.658 180.875 275.779L174.792 279.299C174.582 279.42 174.563 279.606 174.75 279.714L179.478 282.45C179.665 282.558 179.987 282.547 180.196 282.425L186.281 278.905C186.49 278.784 186.509 278.598 186.323 278.49L181.593 275.755ZM232.92 246.054C232.734 245.946 232.413 245.957 232.202 246.078L226.118 249.598C225.909 249.72 225.889 249.906 226.075 250.013L230.804 252.75C230.99 252.858 231.312 252.847 231.523 252.725L237.606 249.204C237.816 249.083 237.835 248.898 237.648 248.789L232.92 246.054ZM173.228 280.594C173.041 280.486 172.72 280.497 172.51 280.618L166.427 284.138C166.217 284.26 166.198 284.446 166.385 284.554L171.113 287.29C171.3 287.398 171.621 287.387 171.831 287.266L177.915 283.746C178.125 283.624 178.144 283.438 177.958 283.33L173.228 280.594ZM249.649 236.374C249.463 236.266 249.142 236.277 248.931 236.398L242.848 239.918C242.639 240.04 242.619 240.226 242.805 240.333L247.535 243.07C247.721 243.178 248.042 243.167 248.252 243.045L254.335 239.525C254.545 239.404 254.564 239.218 254.378 239.11L249.649 236.374ZM275.504 221.413C275.318 221.305 274.996 221.316 274.786 221.437L269.843 224.298C269.633 224.419 269.614 224.605 269.801 224.713L274.529 227.449C274.716 227.557 275.037 227.545 275.248 227.425L280.19 224.564C280.4 224.443 280.419 224.257 280.232 224.149L275.504 221.413ZM291.684 210.096L296.627 207.236C296.837 207.115 296.856 206.929 296.67 206.821L291.941 204.085C291.754 203.977 291.433 203.987 291.222 204.109L286.28 206.969C286.07 207.09 286.051 207.276 286.238 207.384L290.967 210.12C291.153 210.228 291.474 210.218 291.684 210.096ZM262.205 211.518L267.148 208.658C267.358 208.537 267.377 208.351 267.191 208.243L262.462 205.507C262.275 205.399 261.954 205.409 261.744 205.531L256.802 208.391C256.592 208.512 256.573 208.698 256.76 208.806L261.488 211.542C261.674 211.65 261.996 211.64 262.205 211.518ZM243.018 238.256L257.466 229.896C257.676 229.774 257.695 229.588 257.509 229.48L252.78 226.744C252.594 226.636 252.273 226.647 252.063 226.769L237.615 235.129C237.405 235.25 237.387 235.436 237.573 235.544L242.301 238.28C242.487 238.389 242.808 238.378 243.018 238.256ZM283.743 214.3C283.929 214.408 284.25 214.397 284.46 214.276L289.403 211.416C289.613 211.294 289.632 211.108 289.445 211L284.717 208.264C284.53 208.156 284.209 208.167 283.999 208.289L279.056 211.149C278.846 211.27 278.827 211.456 279.013 211.564L283.743 214.3ZM277.706 210.368L282.648 207.507C282.858 207.386 282.877 207.2 282.691 207.092L277.962 204.356C277.776 204.248 277.454 204.259 277.244 204.38L272.301 207.24C272.091 207.362 272.072 207.548 272.258 207.656L276.987 210.392C277.174 210.5 277.496 210.489 277.706 210.368ZM235.794 242.437L240.736 239.577C240.946 239.455 240.965 239.269 240.778 239.161L236.05 236.425C235.864 236.317 235.543 236.328 235.332 236.449L230.389 239.31C230.179 239.431 230.161 239.617 230.347 239.725L235.075 242.461C235.263 242.569 235.584 242.558 235.794 242.437ZM267.774 223.541C267.961 223.649 268.282 223.638 268.492 223.516L273.435 220.656C273.645 220.535 273.664 220.349 273.477 220.241L268.748 217.505C268.561 217.397 268.24 217.408 268.031 217.529L263.088 220.389C262.878 220.511 262.859 220.697 263.046 220.804L267.774 223.541ZM199.674 263.338L204.617 260.477C204.827 260.356 204.846 260.17 204.659 260.062L199.931 257.326C199.744 257.218 199.423 257.229 199.213 257.35L194.271 260.21C194.061 260.332 194.042 260.518 194.228 260.626L198.957 263.362C199.144 263.47 199.465 263.459 199.674 263.338ZM206.899 259.157L211.841 256.297C212.051 256.175 212.07 255.989 211.883 255.881L207.154 253.145C206.968 253.037 206.647 253.048 206.437 253.17L201.494 256.031C201.284 256.152 201.265 256.338 201.451 256.446L206.18 259.182C206.368 259.29 206.689 259.279 206.899 259.157ZM192.451 267.517L197.394 264.657C197.604 264.536 197.623 264.35 197.436 264.242L192.708 261.506C192.521 261.398 192.2 261.409 191.989 261.53L187.047 264.39C186.837 264.511 186.818 264.698 187.004 264.805L191.733 267.542C191.919 267.649 192.24 267.639 192.451 267.517ZM221.346 250.797L226.289 247.937C226.499 247.816 226.518 247.63 226.331 247.522L221.603 244.786C221.416 244.678 221.095 244.689 220.884 244.81L215.942 247.67C215.732 247.791 215.713 247.978 215.9 248.085L220.628 250.822C220.815 250.929 221.136 250.919 221.346 250.797ZM214.122 254.976L219.065 252.116C219.274 251.995 219.294 251.809 219.108 251.701L214.378 248.964C214.192 248.857 213.871 248.867 213.66 248.989L208.717 251.848C208.508 251.969 208.489 252.156 208.675 252.263L213.405 255C213.591 255.109 213.913 255.098 214.122 254.976ZM228.57 246.617L233.513 243.756C233.723 243.635 233.742 243.449 233.555 243.341L228.826 240.605C228.639 240.497 228.318 240.508 228.108 240.629L223.165 243.489C222.955 243.611 222.936 243.797 223.123 243.905L227.851 246.641C228.039 246.75 228.36 246.738 228.57 246.617ZM267.991 188.466C268.178 188.573 268.5 188.563 268.709 188.441L273.652 185.581C273.862 185.46 273.881 185.274 273.694 185.166L272.436 184.437C272.249 184.329 271.927 184.34 271.717 184.462L266.775 187.322C266.566 187.444 266.546 187.63 266.733 187.738L267.991 188.466ZM232.086 211.25C232.272 211.358 232.594 211.347 232.804 211.226L237.746 208.366C237.956 208.245 237.975 208.058 237.788 207.951L233.06 205.214C232.874 205.106 232.552 205.117 232.342 205.239L227.399 208.099C227.189 208.22 227.17 208.406 227.356 208.514L232.086 211.25ZM246.534 202.89C246.72 202.998 247.041 202.987 247.251 202.866L252.194 200.005C252.404 199.884 252.422 199.698 252.237 199.589L247.508 196.853C247.321 196.745 247 196.756 246.79 196.877L241.848 199.738C241.639 199.859 241.619 200.045 241.805 200.153L246.534 202.89ZM223.265 216.354C223.451 216.462 223.772 216.451 223.983 216.33L228.926 213.47C229.135 213.348 229.154 213.162 228.968 213.054L224.239 210.318C224.053 210.21 223.732 210.221 223.521 210.343L218.578 213.203C218.369 213.324 218.35 213.51 218.536 213.618L223.265 216.354ZM239.31 207.07C239.497 207.178 239.818 207.167 240.029 207.045L244.971 204.185C245.18 204.064 245.2 203.878 245.013 203.77L240.284 201.034C240.099 200.926 239.777 200.937 239.567 201.058L234.624 203.918C234.414 204.04 234.395 204.226 234.581 204.333L239.31 207.07ZM208.817 224.715C209.004 224.822 209.325 224.811 209.535 224.689L214.478 221.829C214.688 221.708 214.707 221.522 214.521 221.413L209.792 218.677C209.605 218.569 209.284 218.58 209.074 218.701L204.131 221.561C203.921 221.684 203.902 221.869 204.089 221.977L208.817 224.715ZM216.041 220.535C216.228 220.643 216.549 220.632 216.76 220.511L221.702 217.65C221.912 217.529 221.931 217.343 221.744 217.235L217.016 214.499C216.83 214.391 216.509 214.402 216.298 214.523L211.355 217.383C211.145 217.505 211.126 217.691 211.313 217.799L216.041 220.535ZM253.543 196.826C253.73 196.934 254.052 196.923 254.262 196.802L259.204 193.942C259.414 193.82 259.433 193.635 259.247 193.526L257.987 192.798C257.801 192.69 257.48 192.701 257.27 192.822L252.327 195.683C252.117 195.804 252.098 195.99 252.284 196.098L253.543 196.826ZM275.215 184.286C275.402 184.394 275.723 184.383 275.934 184.262L280.876 181.401C281.086 181.28 281.105 181.094 280.918 180.986L279.659 180.257C279.473 180.149 279.152 180.161 278.941 180.282L273.998 183.142C273.788 183.264 273.769 183.45 273.956 183.559L275.215 184.286ZM285.149 190.033C285.335 190.141 285.657 190.13 285.867 190.009L290.81 187.149C291.02 187.027 291.039 186.841 290.853 186.733L286.124 183.997C285.937 183.889 285.616 183.9 285.405 184.022L280.463 186.882C280.253 187.003 280.234 187.189 280.421 187.297L285.149 190.033ZM298.909 205.916L303.851 203.055C304.061 202.934 304.081 202.748 303.894 202.64L299.165 199.904C298.978 199.796 298.657 199.807 298.447 199.928L293.504 202.788C293.294 202.91 293.275 203.096 293.462 203.204L298.19 205.94C298.377 206.049 298.699 206.037 298.909 205.916ZM260.768 192.645C260.954 192.753 261.275 192.742 261.486 192.621L266.429 189.761C266.639 189.64 266.657 189.453 266.471 189.346L265.212 188.618C265.025 188.51 264.704 188.52 264.493 188.642L259.551 191.502C259.341 191.623 259.322 191.809 259.509 191.917L260.768 192.645ZM201.593 228.894C201.779 229.002 202.101 228.991 202.311 228.87L207.254 226.01C207.464 225.889 207.483 225.702 207.296 225.595L202.567 222.858C202.38 222.751 202.059 222.761 201.849 222.883L196.907 225.743C196.697 225.864 196.678 226.05 196.865 226.158L201.593 228.894Z" fill="#455A64"/>
</g>
<path id="XMLID_268_" d="M222.971 266.235L223.985 266.821L250.903 282.395L298.774 254.693L299.77 254.124L271.839 237.965L222.971 266.235Z" fill="#37474F"/>
<g id="XMLID_261_">
<path id="XMLID_266_" d="M223.985 266.821L250.903 282.395L298.774 254.693L271.839 239.119L223.985 266.821Z" fill="#263238"/>
</g>
</g>
<g id="mailBox">
<g id="mailBoxFlag">
<g id="mailBoxFlagCloth">
<path id="Vector" d="M71.8054 144.903L60.8377 138.557C60.3498 138.275 59.9946 138.204 59.8027 138.316C59.5731 138.451 58.6592 138.98 58.4664 139.09C58.2332 139.223 58.2377 139.621 58.5318 140.233L61.2 145.769L59.209 147.601C58.2969 148.44 58.426 149.623 59.4987 150.244L70.4655 156.59L71.8045 155.814V144.903H71.8054Z" fill="#6C6CE4"/>
<path id="Vector_2" opacity="0.5" d="M71.8054 144.903L60.8377 138.557C60.3498 138.275 59.9946 138.204 59.8027 138.316C59.5731 138.451 58.6592 138.98 58.4664 139.09C58.2332 139.223 58.2377 139.621 58.5318 140.233L61.2 145.769L59.209 147.601C58.2969 148.44 58.426 149.623 59.4987 150.244L70.4655 156.59L71.8045 155.814V144.903H71.8054Z" fill="#E7E7EE"/>
<path id="XMLID_1090_" d="M59.4996 139.333C58.4269 138.713 57.9946 139.116 58.5327 140.233L61.2009 145.769L59.2099 147.601C58.2978 148.44 58.4269 149.623 59.4996 150.244L70.4664 156.59V145.678L59.4996 139.333Z" fill="#6C6CE4"/>
</g>
<g id="XMLID_1088_">
<path id="XMLID_1089_" d="M71.7552 179.874C71.0431 179.874 70.4664 179.296 70.4664 178.582V142.07C70.4664 141.356 71.044 140.778 71.7552 140.778C72.4673 140.778 73.0439 141.357 73.0439 142.07V178.582C73.0439 179.296 72.4673 179.874 71.7552 179.874Z" fill="#455A64"/>
</g>
</g>
<g id="Group">
<path id="XMLID_1087_" d="M24.5605 277.1V274.819H25.122C25.7767 273.491 27.0009 272.237 28.8081 271.192C34.4753 267.913 43.6619 267.913 49.3283 271.192C51.1354 272.237 52.3605 273.491 53.0144 274.819H53.5695V277.027C53.6153 279.21 52.2063 281.4 49.3283 283.065C43.6619 286.344 34.4744 286.344 28.8081 283.065C25.9623 281.418 24.548 279.258 24.5605 277.1Z" fill="#263238"/>
<path id="XMLID_628_" d="M49.3282 268.882C43.6619 265.603 34.4744 265.603 28.8081 268.882C23.1417 272.161 23.1417 277.477 28.8081 280.756C34.4744 284.035 43.6619 284.035 49.3282 280.756C54.9946 277.477 54.9946 272.161 49.3282 268.882Z" fill="#455A64"/>
</g>
<g id="Group_2">
<path id="XMLID_1085_" d="M42.8054 195.753L42.8027 273.823C42.8027 274.376 42.4377 274.929 41.7085 275.351C40.2502 276.195 37.8852 276.195 36.4269 275.351C35.6978 274.929 35.3336 274.376 35.3336 273.823L35.3363 195.753H42.8054Z" fill="#37474F"/>
<path id="XMLID_1084_" d="M35.3336 205.195V212.538L42.8045 216.85L42.8054 209.526L35.3336 205.195Z" fill="#263238"/>
</g>
<g id="Group_3">
<path id="Vector_3" d="M62.4224 188.769L76.2341 196.769C76.1623 196.876 76.0637 196.984 75.965 197.047L51.8036 211.025C51.5973 211.142 51.4359 211.052 51.4359 210.809V193.362C51.4359 190.324 52.1354 186.944 53.4538 183.582L62.4224 188.769Z" fill="#6C6CE4"/>
<path id="Vector_4" opacity="0.4" d="M62.4224 188.769L76.2341 196.769C76.1623 196.876 76.0637 196.984 75.965 197.047L51.8036 211.025C51.5973 211.142 51.4359 211.052 51.4359 210.809V193.362C51.4359 190.324 52.1354 186.944 53.4538 183.582L62.4224 188.769Z" fill="black"/>
<path id="XMLID_1083_" d="M76.339 177.306V196.83L53.4574 183.586C53.4798 183.523 53.5058 183.457 53.5309 183.394C55.9847 177.251 60.1211 172.041 64.6045 169.456C66.443 168.389 68.1856 167.85 69.7803 167.85C73.8251 167.851 76.339 171.474 76.339 177.306Z" fill="#6C6CE4"/>
<path id="XMLID_629_" opacity="0.3" d="M76.339 177.306V196.83L53.4574 183.586C53.4798 183.523 53.5058 183.457 53.5309 183.394C55.9847 177.251 60.1211 172.041 64.6045 169.456C66.443 168.389 68.1856 167.85 69.7803 167.85C73.8251 167.851 76.339 171.474 76.339 177.306Z" fill="black"/>
</g>
<g id="mailBoxDoor">
<path id="XMLID_627_" d="M101.192 218.625L101.191 216.881H101.026V217.13C100.924 216.657 100.775 216.186 100.572 215.719C99.6583 213.582 97.7336 211.533 94.7964 209.833L78.4448 200.372C77.7641 199.978 76.6628 199.978 75.9794 200.372L50.9794 214.838C50.7157 214.601 50.4269 214.369 50.1848 213.96V215.716C50.1848 215.974 50.3552 216.233 50.6951 216.43L67.0466 225.89C71.4224 228.424 77.1435 229.667 82.6861 229.594C87.4825 229.531 92.1453 228.481 95.6986 226.421C99.3749 224.303 101.187 221.493 101.187 218.625H101.192Z" fill="#6C6CE4"/>
<path id="XMLID_634_" opacity="0.4" d="M101.192 218.625L101.191 216.881H101.026V217.13C100.924 216.657 100.775 216.186 100.572 215.719C99.6583 213.582 97.7336 211.533 94.7964 209.833L78.4448 200.372C77.7641 199.978 76.6628 199.978 75.9794 200.372L50.9794 214.838C50.7157 214.601 50.4269 214.369 50.1848 213.96V215.716C50.1848 215.974 50.3552 216.233 50.6951 216.43L67.0466 225.89C71.4224 228.424 77.1435 229.667 82.6861 229.594C87.4825 229.531 92.1453 228.481 95.6986 226.421C99.3749 224.303 101.187 221.493 101.187 218.625H101.192Z" fill="black"/>
<path id="XMLID_1077_" d="M100.572 215.719C99.6583 213.582 97.7336 211.533 94.7964 209.833L78.4448 200.372C77.7641 199.978 76.6628 199.978 75.9794 200.372L50.9794 214.838L67.0466 224.136C71.4224 226.67 77.1435 227.914 82.6861 227.839C87.4825 227.773 92.1453 226.724 95.6986 224.666C98.9982 222.763 100.8 220.307 101.133 217.747C101.05 217.069 100.863 216.389 100.572 215.719Z" fill="#6C6CE4"/>
<path id="XMLID_632_" opacity="0.2" d="M100.572 215.719C99.6583 213.582 97.7336 211.533 94.7964 209.833L78.4448 200.372C77.7641 199.978 76.6628 199.978 75.9794 200.372L50.9794 214.838L67.0466 224.136C71.4224 226.67 77.1435 227.914 82.6861 227.839C87.4825 227.773 92.1453 226.724 95.6986 224.666C98.9982 222.763 100.8 220.307 101.133 217.747C101.05 217.069 100.863 216.389 100.572 215.719Z" fill="black"/>
<path id="XMLID_1076_" d="M101.133 217.747C101.05 217.069 100.862 216.389 100.572 215.719C99.6583 213.582 97.7336 211.533 94.7964 209.833L78.4448 200.372C77.7641 199.978 76.6628 199.978 75.9794 200.372L50.9794 214.838L50.6951 214.675C50.0143 214.281 50.0143 213.642 50.6951 213.249L75.9794 198.618C76.6628 198.224 77.7641 198.224 78.4448 198.618L94.7964 208.078C97.7345 209.779 99.6583 211.827 100.572 213.964C100.88 214.674 101.074 215.396 101.15 216.118C101.21 216.663 101.204 217.208 101.133 217.747Z" fill="#6C6CE4"/>
<path id="XMLID_635_" opacity="0.3" d="M101.133 217.747C101.05 217.069 100.862 216.389 100.572 215.719C99.6583 213.582 97.7336 211.533 94.7964 209.833L78.4448 200.372C77.7641 199.978 76.6628 199.978 75.9794 200.372L50.9794 214.838L50.6951 214.675C50.0143 214.281 50.0143 213.642 50.6951 213.249L75.9794 198.618C76.6628 198.224 77.7641 198.224 78.4448 198.618L94.7964 208.078C97.7345 209.779 99.6583 211.827 100.572 213.964C100.88 214.674 101.074 215.396 101.15 216.118C101.21 216.663 101.204 217.208 101.133 217.747Z" fill="black"/>
</g>
<path id="XMLID_1074_" d="M51.2448 212.999L76.5291 198.368L75.9686 197.044L51.8054 211.027L51.2448 212.999Z" fill="#6C6CE4"/>
<path id="XMLID_631_" opacity="0.1" d="M51.2448 212.999L76.5291 198.368L75.9686 197.044L51.8054 211.027L51.2448 212.999Z" fill="black"/>
<g id="mailBoxLetters">
<g id="mailBoxLettersThree">
<g id="XMLID_1028_">
<g id="XMLID_1030_">
<path id="XMLID_624_" d="M74.1104 176.142C74.1104 175.757 73.8413 175.29 73.5086 175.098L42.7239 157.284C42.3911 157.092 41.853 157.092 41.5203 157.284L40.8422 157.677C40.5095 157.87 40.2404 158.337 40.2404 158.722V182.371C40.2404 182.754 40.5113 183.224 40.8422 183.416L71.627 201.229C71.9579 201.42 72.4996 201.42 72.8306 201.229L73.5086 200.836C73.8396 200.644 74.1104 200.174 74.1104 199.791V176.142Z" fill="#E7E7EE"/>
</g>
</g>
<path id="XMLID_1027_" d="M73.9345 175.549L72.2269 176.536L40.4179 158.128C40.5265 157.939 40.6771 157.773 40.8422 157.677L41.5229 157.286C41.8529 157.092 42.3937 157.092 42.7247 157.286L73.5094 175.098C73.6753 175.195 73.826 175.36 73.9345 175.549Z" fill="#DCDCDC"/>
<g id="XMLID_1025_">
<g id="XMLID_1026_">
<path id="Vector_5" d="M72.087 201.359C72.123 201.368 72.1591 201.368 72.2042 201.368H72.1681C72.1321 201.368 72.114 201.368 72.087 201.359Z" fill="#6C6CE4"/>
<path id="Vector_6" d="M72.2305 176.532L71.9166 176.721C72.1049 176.793 72.2305 176.982 72.2305 177.233V200.883C72.2305 201.08 72.1587 201.215 72.0422 201.278C71.9614 201.314 71.8628 201.323 71.7552 201.287C71.7103 201.269 71.6655 201.251 71.6296 201.233L40.8404 183.418C40.5085 183.22 40.2395 182.752 40.2395 182.375V158.725C40.2395 158.528 40.3112 158.312 40.4188 158.123L72.2305 176.532Z" fill="#EBEBEB"/>
</g>
</g>
<path id="XMLID_623_" opacity="0.2" d="M72.2269 176.536L57.9704 181.874C56.9543 182.253 55.8126 181.877 55.2206 180.967L52.9309 177.452L40.3031 158.062L52.4744 177.584L40.2413 182.382C40.2439 182.576 40.3148 182.793 40.4287 182.984L52.5085 177.639L55.1686 181.906C55.7803 182.884 57.0161 183.267 58.0691 182.798L59.9632 181.96L72.0404 201.278C72.1543 201.218 72.2251 201.081 72.2251 200.882V200.488L60.0215 181.934L72.2269 176.536Z" fill="black"/>
</g>
<g id="mailBoxLettersTwo">
<g id="XMLID_621_">
<g id="XMLID_622_">
<path id="XMLID_1023_" d="M66.8235 180.328C66.8235 179.944 66.5544 179.476 66.2217 179.284L35.4369 161.471C35.1042 161.278 34.5661 161.278 34.2333 161.471L33.5553 161.864C33.2226 162.056 32.9535 162.523 32.9535 162.908V186.558C32.9535 186.941 33.2244 187.411 33.5553 187.603L64.3401 205.416C64.671 205.607 65.2127 205.607 65.5436 205.416L66.2217 205.023C66.5526 204.832 66.8235 204.362 66.8235 203.979V180.328Z" fill="#E7E7EE"/>
</g>
</g>
<path id="XMLID_1020_" d="M66.6484 179.734L64.9399 180.721L33.131 162.313C33.2395 162.124 33.3901 161.959 33.5552 161.862L34.2359 161.471C34.5659 161.276 35.1067 161.276 35.4377 161.471L66.2224 179.283C66.3892 179.38 66.5399 179.545 66.6484 179.734Z" fill="#DCDCDC"/>
<g id="XMLID_619_">
<g id="XMLID_1016_">
<path id="Vector_7" d="M64.8 205.545C64.8361 205.554 64.8721 205.554 64.9172 205.554H64.8811C64.8451 205.554 64.827 205.554 64.8 205.545Z" fill="#6C6CE4"/>
<path id="Vector_8" d="M64.9435 180.718L64.6296 180.907C64.8179 180.979 64.9435 181.168 64.9435 181.419V205.069C64.9435 205.267 64.8718 205.401 64.7552 205.464C64.6744 205.5 64.5758 205.509 64.4682 205.473C64.4233 205.455 64.3785 205.437 64.3426 205.419L33.5534 187.604C33.2215 187.406 32.9525 186.938 32.9525 186.561V162.911C32.9525 162.714 33.0242 162.498 33.1318 162.309L64.9435 180.718Z" fill="#EBEBEB"/>
</g>
</g>
<path id="XMLID_1003_" opacity="0.2" d="M64.9399 180.721L50.6834 186.059C49.6673 186.439 48.5256 186.062 47.9336 185.152L45.6439 181.637L33.017 162.247L45.1883 181.769L32.9552 186.567C32.9578 186.761 33.0296 186.978 33.1426 187.169L45.2224 181.824L47.8825 186.091C48.4942 187.07 49.73 187.452 50.783 186.983L52.6771 186.146L64.7543 205.463C64.8682 205.403 64.939 205.267 64.939 205.067V204.673L52.7354 186.12L64.9399 180.721Z" fill="black"/>
</g>
<g id="mailBoxLettersOne">
<g id="XMLID_617_">
<g id="XMLID_942_">
<path id="XMLID_618_" d="M59.5373 184.513C59.5373 184.129 59.2683 183.661 58.9355 183.469L28.1508 165.656C27.818 165.463 27.2799 165.463 26.9472 165.656L26.2692 166.049C25.9364 166.241 25.6674 166.708 25.6674 167.093V190.743C25.6674 191.126 25.9382 191.596 26.2692 191.788L57.0539 209.601C57.3848 209.792 57.9266 209.792 58.2575 209.601L58.9355 209.208C59.2665 209.017 59.5373 208.547 59.5373 208.164V184.513Z" fill="#E7E7EE"/>
</g>
</g>
<path id="XMLID_616_" d="M59.3614 183.919L57.6529 184.906L25.8439 166.498C25.9525 166.31 26.1031 166.144 26.2682 166.048L26.9489 165.657C27.2789 165.462 27.8197 165.462 28.1507 165.657L58.9354 183.469C59.1022 183.566 59.2529 183.731 59.3614 183.919Z" fill="#DCDCDC"/>
<g id="XMLID_614_">
<g id="XMLID_615_">
<path id="Vector_9" d="M57.5139 209.73C57.55 209.739 57.586 209.739 57.6311 209.739H57.595C57.559 209.739 57.5409 209.739 57.5139 209.73Z" fill="#6C6CE4"/>
<path id="Vector_10" d="M57.6574 184.903L57.3435 185.092C57.5318 185.164 57.6574 185.353 57.6574 185.604V209.254C57.6574 209.452 57.5857 209.587 57.4691 209.649C57.3883 209.685 57.2897 209.694 57.1821 209.658C57.1372 209.64 57.0924 209.622 57.0565 209.604L26.2673 191.789C25.9354 191.591 25.6664 191.124 25.6664 190.746V167.097C25.6664 166.899 25.7381 166.683 25.8457 166.494L57.6574 184.903Z" fill="#EBEBEB"/>
</g>
</g>
<path id="XMLID_613_" opacity="0.2" d="M57.6538 184.906L43.3973 190.244C42.3812 190.624 41.2395 190.247 40.6475 189.338L38.3578 185.822L25.73 166.432L37.9013 185.954L25.6673 190.752C25.67 190.947 25.7417 191.163 25.8547 191.355L37.9345 186.009L40.5946 190.276C41.2063 191.255 42.4422 191.637 43.4951 191.169L45.3892 190.331L57.4664 209.649C57.5803 209.588 57.6511 209.452 57.6511 209.252V208.858L45.4475 190.305L57.6538 184.906Z" fill="black"/>
</g>
</g>
<g id="Group_4">
<path id="Vector_11" d="M73.1399 167.222C70.6915 165.937 67.4448 166.162 63.8933 168.22C59.9022 170.521 56.3058 174.683 53.7856 179.465C53.1937 180.571 52.6735 181.712 52.2072 182.863C50.817 186.333 50.0099 189.964 50.0099 193.362V213.299C49.5614 213.299 49.122 213.191 48.7812 213.002L13.3605 192.497C12.6879 192.102 12.1318 191.14 12.1318 190.358V171.427C12.1318 161.971 18.3471 150.717 26.0063 146.277C29.6386 144.173 32.939 144.003 35.4143 145.396L35.4233 145.378L73.1399 167.222Z" fill="#6C6CE4"/>
<path id="Vector_12" opacity="0.2" d="M73.1399 167.222C70.6915 165.937 67.4448 166.162 63.8933 168.22C59.9022 170.521 56.3058 174.683 53.7856 179.465C53.1937 180.571 52.6735 181.712 52.2072 182.863C50.817 186.333 50.0099 189.964 50.0099 193.362V213.299C49.5614 213.299 49.122 213.191 48.7812 213.002L13.3605 192.497C12.6879 192.102 12.1318 191.14 12.1318 190.358V171.427C12.1318 161.971 18.3471 150.717 26.0063 146.277C29.6386 144.173 32.939 144.003 35.4143 145.396L35.4233 145.378L73.1399 167.222Z" fill="black"/>
<path id="Vector_13" opacity="0.1" d="M13.3596 192.497L48.7803 213.002C49.1211 213.191 49.5605 213.299 50.009 213.299V193.362C50.009 191.546 50.2457 189.665 50.6726 187.776L12.7865 165.853C12.3632 167.738 12.1318 169.615 12.1318 171.427V190.358C12.1309 191.14 12.687 192.102 13.3596 192.497Z" fill="black"/>
<path id="Vector_14" d="M52.2072 182.863C50.817 186.333 50.0099 189.964 50.0099 193.362V213.299C49.8574 213.299 49.7049 213.281 49.5614 213.254C49.5525 212.103 49.5435 205.703 49.5435 193.362C49.5435 178.692 60.7991 169.371 63.8933 168.22C59.9022 170.521 56.3058 174.683 53.7856 179.465C53.1937 180.571 52.6735 181.712 52.2072 182.863Z" fill="#6C6CE4"/>
<path id="Vector_15" opacity="0.4" d="M52.2072 182.863C50.817 186.333 50.0099 189.964 50.0099 193.362V213.299C49.8574 213.299 49.7049 213.281 49.5614 213.254C49.5525 212.103 49.5435 205.703 49.5435 193.362C49.5435 178.692 60.7991 169.371 63.8933 168.22C59.9022 170.521 56.3058 174.683 53.7856 179.465C53.1937 180.571 52.6735 181.712 52.2072 182.863Z" fill="black"/>
</g>
<path id="XMLID_607_" d="M51.8054 211.027C51.6009 211.145 51.4359 211.049 51.4359 210.813V193.363C51.4359 190.321 52.1363 186.946 53.4574 183.585C53.4798 183.522 53.5058 183.456 53.5309 183.393C54.026 182.152 54.5901 180.951 55.2161 179.801C57.67 175.253 61.026 171.519 64.6045 169.456C66.443 168.389 68.1857 167.85 69.7803 167.85C70.7883 167.85 71.7022 168.076 72.5049 168.503C74.9247 169.796 76.339 172.929 76.339 177.305V196.401C76.339 196.637 76.1731 196.925 75.9695 197.043L76.53 198.367C76.5731 198.341 76.6152 198.316 76.6556 198.287C76.8404 198.158 77.0144 197.987 77.165 197.793C77.1677 197.793 77.1677 197.791 77.1677 197.788C77.5265 197.334 77.7623 196.743 77.7623 196.227V177.305C77.7623 172.241 75.9776 168.717 73.1417 167.225C70.6879 165.935 67.4484 166.161 63.8924 168.221C59.904 170.52 56.3085 174.68 53.7812 179.465C53.1973 180.569 52.6709 181.708 52.2099 182.863C50.8206 186.333 50.0126 189.961 50.0126 193.363V213.294C50.0834 213.294 50.1552 213.292 50.226 213.285C50.5991 213.259 50.9605 213.163 51.2448 212.997L51.8054 211.027Z" fill="#6C6CE4"/>
<path id="XMLID_630_" opacity="0.1" d="M51.8054 211.027C51.6009 211.145 51.4359 211.049 51.4359 210.813V193.363C51.4359 190.321 52.1363 186.946 53.4574 183.585C53.4798 183.522 53.5058 183.456 53.5309 183.393C54.026 182.152 54.5901 180.951 55.2161 179.801C57.67 175.253 61.026 171.519 64.6045 169.456C66.443 168.389 68.1857 167.85 69.7803 167.85C70.7883 167.85 71.7022 168.076 72.5049 168.503C74.9247 169.796 76.339 172.929 76.339 177.305V196.401C76.339 196.637 76.1731 196.925 75.9695 197.043L76.53 198.367C76.5731 198.341 76.6152 198.316 76.6556 198.287C76.8404 198.158 77.0144 197.987 77.165 197.793C77.1677 197.793 77.1677 197.791 77.1677 197.788C77.5265 197.334 77.7623 196.743 77.7623 196.227V177.305C77.7623 172.241 75.9776 168.717 73.1417 167.225C70.6879 165.935 67.4484 166.161 63.8924 168.221C59.904 170.52 56.3085 174.68 53.7812 179.465C53.1973 180.569 52.6709 181.708 52.2099 182.863C50.8206 186.333 50.0126 189.961 50.0126 193.363V213.294C50.0834 213.294 50.1552 213.292 50.226 213.285C50.5991 213.259 50.9605 213.163 51.2448 212.997L51.8054 211.027Z" fill="black"/>
</g>
<g id="envelopesSecondary">
<g id="envelopesSecondaryOne">
<g id="Letter_1_">
<g id="XMLID_679_">
<g id="XMLID_682_">
<path id="XMLID_684_" d="M136.269 159.889C136.269 158.4 137.312 156.589 138.599 155.845L253.554 89.3313C254.841 88.587 256.927 88.5861 258.214 89.3313L260.84 90.8513C262.127 91.5955 263.17 93.4068 263.17 94.8962V186.472C263.17 187.955 262.121 189.775 260.84 190.517L145.885 257.029C144.604 257.771 142.507 257.771 141.225 257.029L138.599 255.51C137.318 254.769 136.269 252.948 136.269 251.465V159.889Z" fill="#6C6CE4"/>
</g>
</g>
<g id="XMLID_880_" opacity="0.7">
<g id="XMLID_901_">
<path id="XMLID_904_" d="M136.269 159.889C136.269 158.4 137.312 156.589 138.599 155.845L253.554 89.3313C254.841 88.587 256.927 88.5861 258.214 89.3313L260.84 90.8513C262.127 91.5955 263.17 93.4068 263.17 94.8962V186.472C263.17 187.955 262.121 189.775 260.84 190.517L145.885 257.029C144.604 257.771 142.507 257.771 141.225 257.029L138.599 255.51C137.318 254.769 136.269 252.948 136.269 251.465V159.889Z" fill="#E7E7EE"/>
</g>
</g>
<path id="XMLID_677_" d="M136.949 157.589L143.562 161.412L262.485 92.5951C262.066 91.8661 261.483 91.2252 260.843 90.8494L258.208 89.3357C256.929 88.5843 254.835 88.5843 253.556 89.3357L138.602 155.844C137.952 156.219 137.368 156.859 136.949 157.589Z" fill="#6C6CE4"/>
<path id="XMLID_687_" opacity="0.8" d="M136.949 157.589L143.562 161.412L262.485 92.5951C262.066 91.8661 261.483 91.2252 260.843 90.8494L258.208 89.3357C256.929 88.5843 254.835 88.5843 253.556 89.3357L138.602 155.844C137.952 156.219 137.368 156.859 136.949 157.589Z" fill="#E7E7EE"/>
<path id="XMLID_676_" opacity="0.1" d="M136.265 159.887V251.462C136.265 252.953 137.313 254.765 138.603 255.505L141.226 257.029C141.424 257.14 141.634 257.24 141.865 257.317C142.163 257.417 142.483 257.494 142.824 257.538C143.43 257.615 144.07 257.593 144.665 257.471C144.82 257.438 144.978 257.403 145.122 257.358C145.222 257.325 145.325 257.293 145.405 257.258C144.976 257.413 144.588 257.372 144.28 257.216C143.839 256.984 143.563 256.454 143.563 255.681V164.107C143.563 163.146 144.048 162.416 144.776 162.119L143.563 161.412L136.95 157.589C136.53 158.318 136.265 159.147 136.265 159.887Z" fill="#6C6CE4"/>
<path id="XMLID_919_" opacity="0.05" d="M136.265 159.887V251.462C136.265 252.953 137.313 254.765 138.603 255.505L141.226 257.029C141.424 257.14 141.634 257.24 141.865 257.317C142.163 257.417 142.483 257.494 142.824 257.538C143.43 257.615 144.07 257.593 144.665 257.471C144.82 257.438 144.978 257.403 145.122 257.358C145.222 257.325 145.325 257.293 145.405 257.258C144.976 257.413 144.588 257.372 144.28 257.216C143.839 256.984 143.563 256.454 143.563 255.681V164.107C143.563 163.146 144.048 162.416 144.776 162.119L143.563 161.412L136.95 157.589C136.53 158.318 136.265 159.147 136.265 159.887Z" fill="black"/>
<path id="XMLID_675_" opacity="0.2" d="M143.562 161.411L198.766 182.082C202.701 183.551 207.121 182.093 209.414 178.569L218.279 164.957L262.485 92.5951L220.046 165.469L263.169 186.512C263.158 187.264 262.882 188.103 262.441 188.843L219.914 165.681L209.613 182.204C207.243 185.994 202.458 187.474 198.38 185.662L191.046 182.417L144.28 257.218C143.839 256.986 143.563 256.456 143.563 255.683V254.158L190.817 182.316L143.562 161.411Z" fill="#6C6CE4"/>
<path id="XMLID_920_" opacity="0.05" d="M143.562 161.411L198.766 182.082C202.701 183.551 207.121 182.093 209.414 178.569L218.279 164.957L262.485 92.5951L220.046 165.469L263.169 186.512C263.158 187.264 262.882 188.103 262.441 188.843L219.914 165.681L209.613 182.204C207.243 185.994 202.458 187.474 198.38 185.662L191.046 182.417L144.28 257.218C143.839 256.986 143.563 256.456 143.563 255.683V254.158L190.817 182.316L143.562 161.411Z" fill="black"/>
</g>
</g>
<g id="envelopesSecondaryTwo">
<g id="Letter_2_">
<g id="XMLID_670_">
<g id="XMLID_671_">
<path id="XMLID_672_" d="M165.414 176.77C165.414 175.281 166.457 173.47 167.744 172.725L282.698 106.212C283.985 105.468 286.071 105.468 287.358 106.212L289.984 107.732C291.271 108.476 292.314 110.288 292.314 111.777V203.354C292.314 204.837 291.266 206.657 289.984 207.399L175.03 273.911C173.748 274.653 171.651 274.653 170.37 273.911L167.744 272.392C166.462 271.65 165.414 269.83 165.414 268.347V176.77Z" fill="#6C6CE4"/>
</g>
</g>
<g id="XMLID_832_" opacity="0.5">
<g id="XMLID_833_">
<path id="XMLID_860_" d="M165.414 176.77C165.414 175.281 166.457 173.47 167.744 172.725L282.698 106.212C283.985 105.468 286.071 105.468 287.358 106.212L289.984 107.732C291.271 108.476 292.314 110.288 292.314 111.777V203.354C292.314 204.837 291.266 206.657 289.984 207.399L175.03 273.911C173.748 274.653 171.651 274.653 170.37 273.911L167.744 272.392C166.462 271.65 165.414 269.83 165.414 268.347V176.77Z" fill="#E7E7EE"/>
</g>
</g>
<path id="XMLID_669_" d="M166.093 174.47L172.707 178.293L291.63 109.476C291.211 108.747 290.627 108.106 289.987 107.73L287.352 106.217C286.074 105.465 283.979 105.465 282.7 106.217L167.746 172.725C167.097 173.1 166.512 173.741 166.093 174.47Z" fill="#6C6CE4"/>
<path id="XMLID_686_" opacity="0.6" d="M166.093 174.47L172.707 178.293L291.63 109.476C291.211 108.747 290.627 108.106 289.987 107.73L287.352 106.217C286.074 105.465 283.979 105.465 282.7 106.217L167.746 172.725C167.097 173.1 166.512 173.741 166.093 174.47Z" fill="#E7E7EE"/>
<path id="XMLID_668_" opacity="0.1" d="M165.41 176.769V268.343C165.41 269.835 166.457 271.647 167.747 272.387L170.37 273.911C170.569 274.022 170.778 274.121 171.01 274.199C171.308 274.298 171.627 274.376 171.969 274.42C172.575 274.497 173.214 274.475 173.81 274.353C173.964 274.32 174.118 274.276 174.262 274.232C174.361 274.199 174.449 274.165 174.537 274.121C174.108 274.276 173.733 274.253 173.424 274.099C172.983 273.867 172.708 273.337 172.708 272.564V180.989C172.708 180.028 173.193 179.299 173.92 179L172.708 178.294L166.094 174.471C165.674 175.2 165.41 176.028 165.41 176.769Z" fill="black"/>
<path id="XMLID_667_" opacity="0.4" d="M172.708 178.293L227.911 198.964C231.847 200.433 236.266 198.974 238.56 195.451L247.424 181.839L291.63 109.477L249.191 182.351L292.314 203.394C292.303 204.146 292.027 204.985 291.587 205.725L249.058 182.562L238.757 199.085C236.387 202.875 231.603 204.355 227.525 202.543L220.19 199.298L173.424 274.099C172.983 273.867 172.708 273.337 172.708 272.564V271.039L219.961 199.197L172.708 178.293Z" fill="#6C6CE4"/>
<path id="XMLID_921_" opacity="0.05" d="M172.708 178.293L227.911 198.964C231.847 200.433 236.266 198.974 238.56 195.451L247.424 181.839L291.63 109.477L249.191 182.351L292.314 203.394C292.303 204.146 292.027 204.985 291.587 205.725L249.058 182.562L238.757 199.085C236.387 202.875 231.603 204.355 227.525 202.543L220.19 199.298L173.424 274.099C172.983 273.867 172.708 273.337 172.708 272.564V271.039L219.961 199.197L172.708 178.293Z" fill="black"/>
</g>
</g>
</g>
<g id="envelopeMain">
<g id="XMLID_1080_">
<path id="XMLID_1109_" d="M194.8 194.158L314.424 125.093L319.211 127.856C320.448 128.571 321.461 130.324 321.461 131.754V219.999C321.461 221.427 320.448 223.182 319.211 223.896L204.087 290.363C202.849 291.078 200.824 291.078 199.587 290.363L197.05 288.898C195.813 288.183 194.8 286.43 194.8 285V194.158Z" fill="#6C6CE4"/>
<path id="XMLID_1108_" opacity="0.2" d="M194.8 194.158L314.424 125.093L319.211 127.856C320.448 128.571 321.461 130.324 321.461 131.754V219.999C321.461 221.427 320.448 223.182 319.211 223.896L204.087 290.363C202.849 291.078 200.824 291.078 199.587 290.363L197.05 288.898C195.813 288.183 194.8 286.43 194.8 285V194.158Z" fill="black"/>
<path id="XMLID_1107_" d="M313.764 117.336L314.254 117.069L312.395 115.99V115.991C312.235 115.898 312.07 115.818 311.901 115.756L259.255 96.247C257.861 95.7305 256.051 96.3062 255.212 97.5322L196.319 183.536C195.48 184.762 194.799 186.96 194.799 188.446C194.799 190.904 194.799 194.158 194.799 194.158L196.624 195.218L314.423 125.094V119.381C314.424 118.685 314.17 117.964 313.764 117.336Z" fill="#6C6CE4"/>
<path id="XMLID_1106_" opacity="0.1" d="M257.649 97.9493C257.416 98.1287 257.21 98.3529 257.039 98.595L198.143 184.595C197.712 185.232 197.317 186.129 197.048 187.052L195.219 185.994C195.353 185.546 195.515 185.106 195.694 184.694C195.703 184.676 195.703 184.667 195.712 184.658C195.793 184.478 195.874 184.308 195.963 184.138C195.981 184.111 195.99 184.084 196.008 184.057C196.107 183.869 196.214 183.689 196.322 183.537L255.21 97.5367C255.3 97.4022 255.398 97.2946 255.506 97.178C255.604 97.0793 255.712 96.9807 255.82 96.891L257.649 97.9493Z" fill="black"/>
<path id="XMLID_1105_" opacity="0.35" d="M314.232 117.061C314.071 116.963 313.9 116.882 313.73 116.819L261.075 97.3035C259.963 96.891 258.582 97.178 257.649 97.9493L255.82 96.891C256.761 96.1287 258.134 95.8327 259.255 96.2453L311.9 115.752C312.071 115.815 312.232 115.895 312.394 115.994L314.232 117.061Z" fill="#E7E7EE"/>
<path id="XMLID_1092_" d="M257.037 98.5923L198.145 184.596C197.306 185.822 196.625 188.02 196.625 189.506C196.625 191.965 196.625 195.217 196.625 195.217L316.251 126.147L316.25 120.441C316.25 118.955 315.121 117.331 313.727 116.816L261.081 97.3071C259.686 96.7906 257.876 97.3663 257.037 98.5923Z" fill="#6C6CE4"/>
<path id="XMLID_1091_" opacity="0.05" d="M316.249 120.441C316.249 119.757 316.004 119.05 315.61 118.43L197.048 187.052C197.048 187.052 197.042 187.062 197.037 187.07C196.783 187.922 196.624 188.795 196.624 189.505C196.624 191.964 196.624 195.217 196.624 195.217L316.25 126.147L316.249 120.441Z" fill="black"/>
</g>
<g id="envelopeMainLetter">
<path id="Vector_16" d="M311.14 96.1995C311.14 95.5852 310.926 95.152 310.579 94.9466C310.227 94.7385 307.279 93.0417 306.927 92.839C306.576 92.6363 306.091 92.6659 305.555 92.9753L207.434 149.623C206.362 150.242 205.492 151.748 205.492 152.986L205.493 270.495C205.493 271.114 205.71 271.549 206.061 271.752C206.413 271.956 209.353 273.652 209.705 273.856C210.057 274.059 210.542 274.03 211.078 273.72L309.199 217.072C310.272 216.453 311.141 214.947 311.141 213.709L311.14 96.1995Z" fill="#F0F0F0"/>
<path id="Vector_17" d="M211.078 273.72L309.199 217.072C310.272 216.453 311.141 214.947 311.141 213.709L311.14 96.1995C311.14 94.961 310.271 94.4596 309.198 95.0784L211.077 151.726C210.004 152.345 209.135 153.851 209.135 155.089L209.136 272.599C209.136 273.837 210.006 274.339 211.078 273.72Z" fill="#E7E7EE"/>
<g id="XMLID_662_">
<path id="XMLID_663_" d="M273.961 162.507C273.857 163.898 273.612 165.2 273.227 166.418C272.84 167.636 272.37 168.73 271.813 169.7C271.257 170.67 270.639 171.506 269.962 172.204C269.284 172.904 268.601 173.427 267.913 173.78C266.684 174.408 265.742 174.635 265.087 174.461C264.431 174.287 263.944 173.982 263.623 173.547C263.412 174.007 263.189 174.474 262.953 174.944C262.717 175.417 262.422 175.884 262.067 176.347C261.712 176.811 261.273 177.264 260.75 177.708C260.227 178.152 259.583 178.569 258.821 178.958C257.911 179.424 257.098 179.584 256.381 179.44C255.665 179.296 255.061 178.876 254.572 178.176C254.082 177.477 253.723 176.527 253.494 175.324C253.265 174.123 253.184 172.695 253.25 171.043C253.317 169.392 253.51 167.824 253.835 166.339C254.16 164.854 254.586 163.5 255.117 162.281C255.647 161.06 256.285 159.994 257.032 159.085C257.778 158.175 258.607 157.487 259.517 157.021C260.525 156.506 261.265 156.348 261.739 156.544C262.212 156.743 262.596 157.101 262.889 157.618L262.909 157.133C262.925 156.739 263.036 156.348 263.243 155.96C263.452 155.572 263.691 155.308 263.961 155.17L265.879 154.19C266.148 154.052 266.378 154.075 266.563 154.262C266.747 154.449 266.832 154.74 266.816 155.134L266.358 166.606C266.323 167.468 266.488 168.036 266.85 168.307C267.213 168.579 267.639 168.59 268.131 168.339C268.622 168.087 269.057 167.627 269.432 166.96C269.807 166.294 270.043 165.372 270.138 164.198C270.226 163.203 270.291 162.176 270.333 161.116C270.375 160.057 270.378 159.08 270.342 158.183C270.273 156.285 270.035 154.7 269.629 153.431C269.222 152.161 268.625 151.243 267.842 150.678C267.057 150.111 266.054 149.895 264.834 150.026C263.612 150.158 262.153 150.657 260.457 151.525C259.031 152.255 257.741 153.206 256.587 154.376C255.433 155.547 254.43 156.869 253.575 158.343C252.722 159.818 252.019 161.417 251.469 163.139C250.918 164.865 250.535 166.626 250.319 168.425C250.251 168.917 250.196 169.551 250.153 170.33C250.11 171.108 250.072 171.919 250.038 172.762C250.004 173.607 249.978 174.421 249.959 175.204C249.939 175.988 249.944 176.617 249.974 177.095C250.052 178.743 250.309 180.16 250.743 181.344C251.177 182.53 251.778 183.445 252.547 184.087C253.317 184.732 254.254 185.061 255.361 185.076C256.469 185.09 257.735 184.732 259.161 184.002C260.17 183.487 261.045 182.968 261.788 182.448C262.531 181.927 263.184 181.398 263.748 180.865C264.311 180.33 264.794 179.81 265.201 179.304C265.605 178.797 265.975 178.301 266.308 177.814C266.589 177.39 266.812 177.074 266.978 176.865C267.143 176.658 267.36 176.485 267.63 176.346L270.359 174.949C270.629 174.812 270.863 174.824 271.062 174.986C271.259 175.148 271.337 175.469 271.293 175.948C271.282 176.235 271.186 176.549 271.004 176.888C270.457 177.906 269.842 178.977 269.159 180.101C268.475 181.223 267.667 182.322 266.734 183.399C265.799 184.475 264.699 185.53 263.429 186.567C262.159 187.603 260.664 188.563 258.943 189.443C256.804 190.537 254.943 191.039 253.357 190.955C251.771 190.869 250.449 190.331 249.395 189.341C248.337 188.351 247.531 186.987 246.975 185.249C246.418 183.513 246.11 181.548 246.054 179.363C246.049 178.873 246.058 178.209 246.079 177.371C246.1 176.535 246.129 175.658 246.166 174.741C246.203 173.826 246.243 172.952 246.289 172.12C246.333 171.287 246.378 170.63 246.421 170.152C246.632 167.864 247.093 165.527 247.803 163.14C248.512 160.756 249.464 158.484 250.657 156.324C251.85 154.166 253.284 152.192 254.958 150.405C256.629 148.618 258.535 147.177 260.674 146.083C263.182 144.8 265.29 144.161 266.999 144.166C268.709 144.171 270.091 144.659 271.149 145.63C272.204 146.603 272.97 147.99 273.439 149.788C273.909 151.588 274.17 153.634 274.223 155.929C274.235 156.838 274.216 157.911 274.167 159.15C274.116 160.396 274.048 161.513 273.961 162.507ZM257.12 169.064C257.049 170.824 257.229 172.069 257.657 172.8C258.085 173.53 258.728 173.676 259.59 173.235C260.499 172.771 261.201 171.946 261.694 170.762C262.186 169.577 262.469 168.088 262.541 166.292C262.612 164.533 262.438 163.276 262.022 162.521C261.607 161.766 260.944 161.623 260.035 162.087C259.173 162.527 258.491 163.359 257.986 164.585C257.478 165.812 257.19 167.305 257.12 169.064Z" fill="#6C6CE4"/>
</g>
<path id="Vector_18" d="M209.133 272.598C209.133 273.145 209.303 273.548 209.59 273.782C208.935 273.414 206.388 271.934 206.065 271.755C205.707 271.548 205.491 271.118 205.491 270.499V152.983C205.491 152.365 205.707 151.683 206.065 151.073L209.707 153.172C209.348 153.782 209.133 154.472 209.133 155.091V272.598Z" fill="#DCDCDC"/>
</g>
<g id="XMLID_944_">
<path id="XMLID_1018_" d="M318.426 221.175C318.39 221.238 318.355 221.292 318.301 221.355L268.451 205.548C264.536 203.808 259.952 205.225 257.678 208.864L204.386 288.071L202.415 289.209L202.397 289.218C201.8 289.55 201.265 289.595 200.873 289.389L255.681 207.743C257.955 204.104 262.547 202.688 266.462 204.418L318.426 221.175Z" fill="#6C6CE4"/>
<path id="XMLID_1017_" opacity="0.4" d="M252.77 216.638L252.896 216.53L204.385 288.074L202.412 289.213L202.394 289.222C201.802 289.554 201.264 289.59 200.869 289.392L250.851 215.49L252.77 216.638Z" fill="#E7E7EE"/>
<path id="XMLID_1013_" opacity="0.4" d="M318.43 221.178C318.394 221.241 318.358 221.295 318.304 221.357L268.448 205.545C264.537 203.805 259.954 205.222 257.676 208.863L255.703 207.715C257.981 204.092 262.555 202.693 266.465 204.415L318.43 221.178Z" fill="#E7E7EE"/>
<path id="XMLID_1011_" d="M321.42 131.191H321.411C321.303 130.545 320.962 130.365 320.523 130.67C320.352 130.787 320.155 130.984 319.949 131.262L319.698 131.612L270.505 206.4L263.16 216.634C262.335 217.8 260.523 218.472 259.115 218.149L252.774 216.643L204.37 198.823C204.021 198.742 203.689 198.733 203.384 198.787C203.258 198.814 203.133 198.85 203.016 198.904L204.84 197.849L251.247 214.856L257.357 217.036C258.756 217.368 260.568 216.695 261.402 215.521L268.747 205.296L318.182 130.158C318.344 129.934 318.541 129.773 318.738 129.647L314.46 127.181L316.254 126.149L319.213 127.853C320.29 128.482 321.196 129.89 321.42 131.191Z" fill="#6C6CE4"/>
<path id="XMLID_1010_" opacity="0.4" d="M270.501 206.396L263.156 216.629C262.331 217.795 260.519 218.468 259.111 218.145L252.77 216.638L252.896 216.53L253.201 216.046L257.353 217.033C258.752 217.365 260.564 216.692 261.398 215.517L268.672 205.4L270.501 206.396Z" fill="#E7E7EE"/>
<path id="XMLID_1009_" opacity="0.1" d="M319.21 127.851L316.25 126.147L314.456 127.178L318.735 129.644C318.738 129.647 318.742 129.65 318.745 129.652L318.738 129.648C318.523 129.783 318.334 129.949 318.182 130.159L268.744 205.293L268.673 205.391V205.4L270.502 206.396L319.695 131.608L319.946 131.258C320.152 130.98 320.35 130.782 320.52 130.666C320.96 130.361 321.3 130.54 321.408 131.186H321.417C321.192 129.887 320.286 128.478 319.21 127.851Z" fill="black"/>
<path id="XMLID_1008_" d="M205.353 200.254L194.799 194.158L194.8 285.001C194.8 286.431 195.813 288.184 197.05 288.899L199.587 290.364C200.824 291.078 202.85 291.078 204.087 290.364L205.353 289.633V200.254Z" fill="#6C6CE4"/>
<path id="XMLID_1007_" opacity="0.15" d="M205.353 200.254L194.799 194.158L194.8 285.001C194.8 286.431 195.813 288.184 197.05 288.899L199.587 290.364C200.824 291.078 202.85 291.078 204.087 290.364L205.353 289.633V200.254Z" fill="black"/>
<path id="XMLID_1005_" d="M321.465 131.756V219.998C321.465 220.742 321.196 221.558 320.765 222.276C320.406 222.868 319.958 223.397 319.447 223.756L319.357 223.8C319.303 223.836 319.267 223.872 319.213 223.899L204.092 290.356L204.074 290.365C203.474 290.706 202.935 290.751 202.541 290.545C202.191 290.365 201.949 289.998 201.868 289.469C201.85 289.343 201.841 289.208 201.841 289.065V200.814C201.841 199.388 202.962 198.491 204.37 198.823L252.774 216.643L259.115 218.149C260.523 218.472 262.335 217.8 263.16 216.634L270.505 206.4L319.698 131.612L319.949 131.262C320.783 130.105 321.465 130.321 321.465 131.756Z" fill="#6C6CE4"/>
<path id="XMLID_1004_" d="M319.213 223.9C319.265 223.874 319.308 223.839 319.361 223.805L319.447 223.753C319.958 223.398 320.408 222.869 320.763 222.28C321.189 221.574 321.453 220.766 321.462 220.04L270.509 206.402L304.63 232.32L319.213 223.9Z" fill="#6C6CE4"/>
<path id="XMLID_1000_" opacity="0.2" d="M319.213 223.9C319.265 223.874 319.308 223.839 319.361 223.805L319.447 223.753C319.958 223.398 320.408 222.869 320.763 222.28C321.189 221.574 321.453 220.766 321.462 220.04L270.509 206.402L304.63 232.32L319.213 223.9Z" fill="black"/>
<path id="XMLID_999_" d="M201.839 289.061C201.839 289.807 202.108 290.317 202.541 290.543C202.939 290.751 203.476 290.707 204.074 290.37L204.091 290.361L243.726 267.479L252.778 216.641L201.84 287.596L201.839 289.061Z" fill="#6C6CE4"/>
<path id="XMLID_998_" opacity="0.15" d="M257.658 208.853L202.537 290.54C202.107 290.316 201.838 289.805 201.838 289.061L201.841 287.594L255.685 207.741C255.685 207.732 255.694 207.723 255.703 207.714L257.658 208.853Z" fill="black"/>
<path id="XMLID_992_" d="M320.762 222.28C320.407 222.869 319.957 223.398 319.446 223.753L319.36 223.805L204.091 290.361L204.074 290.37C203.477 290.708 202.94 290.751 202.541 290.543L257.667 208.841C259.952 205.193 264.569 203.777 268.506 205.515L320.762 222.28Z" fill="#6C6CE4"/>
<path id="XMLID_966_" opacity="0.15" d="M195.219 185.994L197.048 187.052C196.788 187.913 196.627 188.792 196.627 189.51C196.627 191.967 196.627 195.214 196.627 195.214L194.797 194.156C194.797 194.156 194.797 190.9 194.797 188.443C194.797 187.734 194.959 186.855 195.219 185.994Z" fill="black"/>
<path id="XMLID_946_" d="M204.84 197.849L203.016 198.904L201.169 197.836L196.622 195.217L198.388 194.168L204.84 197.849Z" fill="#6C6CE4"/>
<path id="XMLID_945_" opacity="0.1" d="M204.921 197.883L198.387 194.168L196.621 195.217L201.168 197.836L203.015 198.904L203.034 198.893C203.144 198.844 203.262 198.808 203.379 198.783C203.684 198.73 204.016 198.739 204.366 198.819L208.044 200.176L250.297 215.731L250.958 214.751L204.921 197.883Z" fill="black"/>
</g>
</g>
<g id="clouds">
<g id="cloudSmall">
<path id="XMLID_1112_" d="M105.853 45.0103L99.0206 48.9636C99.0547 48.658 99.078 48.3542 99.078 48.0575V46.0737C99.078 42.5429 96.6054 41.1119 93.5543 42.8773C92.3184 43.5919 91.182 44.7254 90.2619 46.0503C89.7623 41.6108 86.287 39.9578 82.0664 42.4C77.5022 45.0409 73.8027 51.4634 73.8027 56.7452V59.7133C73.8027 61.0813 74.0556 62.2337 74.5022 63.1515L68.8269 66.4351C67.1345 67.4148 65.7632 69.796 65.7632 71.7537C65.7632 73.7124 67.1345 74.5061 68.8269 73.5263L105.853 52.1016C107.545 51.1227 108.917 48.7407 108.917 46.7829C108.917 44.8252 107.545 44.0315 105.853 45.0103Z" fill="#F0F0F0"/>
</g>
<g id="cloudBig">
<path id="XMLID_1110_" d="M72.7731 22.4342L64.3614 27.3016C64.4027 26.9249 64.4323 26.551 64.4323 26.1861V23.7438C64.4323 19.3978 61.3883 17.636 57.6323 19.8094C56.1112 20.6894 54.7121 22.0836 53.5794 23.7151C52.9641 18.2499 48.6861 16.2139 43.4906 19.2207C37.8717 22.4719 33.3175 30.3784 33.3175 36.8809V40.5348C33.3175 42.2193 33.6287 43.6378 34.1785 44.7676L27.1919 48.8099C25.1085 50.0153 23.4197 52.9465 23.4197 55.3573C23.4197 57.7681 25.1085 58.7452 27.1919 57.5398L72.7731 31.1649C74.8565 29.9595 76.5453 27.0274 76.5453 24.6166C76.5453 22.2058 74.8565 21.2288 72.7731 22.4342Z" fill="#F0F0F0"/>
</g>
</g>
<g id="paperPlane">
<g id="plane">
<path id="XMLID_1116_" d="M338.976 101.324L370.704 80.9591L384.68 85.4562L338.976 101.324Z" fill="#6C6CE4"/>
<path id="XMLID_1115_" d="M338.976 101.324L366.398 78.4036L360.304 71.351L338.976 101.324Z" fill="#6C6CE4"/>
<path id="XMLID_1114_" d="M366.398 78.4036V83.7231L338.976 101.324L366.398 78.4036Z" fill="#6C6CE4"/>
<path id="XMLID_1113_" opacity="0.25" d="M366.398 78.4036V83.7231L338.976 101.324L366.398 78.4036Z" fill="black"/>
</g>
<g id="planePath">
<path id="Vector_19" d="M370.968 77.9595C370.787 77.9595 370.607 77.8867 370.474 77.7429C370.222 77.4697 370.238 77.0427 370.511 76.7901C371.455 75.9155 372.326 74.9627 373.101 73.9577C373.329 73.6629 373.752 73.609 374.046 73.8364C374.339 74.0638 374.394 74.4872 374.167 74.782C373.345 75.8463 372.423 76.8557 371.424 77.7807C371.296 77.9002 371.132 77.9595 370.968 77.9595ZM376.015 71.2467C375.915 71.2467 375.812 71.2243 375.715 71.1748C375.383 71.0076 375.248 70.6031 375.414 70.2706C376.192 68.7155 376.79 67.0634 377.193 65.36C377.278 64.9977 377.64 64.7748 378.002 64.8593C378.363 64.9456 378.587 65.3079 378.501 65.671C378.075 67.4759 377.441 69.227 376.617 70.8746C376.5 71.111 376.263 71.2467 376.015 71.2467ZM378.466 61.7438C378.456 61.7438 378.446 61.7438 378.436 61.7429C378.065 61.7258 377.778 61.4112 377.794 61.0391C377.81 60.6777 377.818 60.3155 377.818 59.9515C377.818 58.5789 377.7 57.1856 377.467 55.8103C377.405 55.4427 377.652 55.0948 378.018 55.0328C378.376 54.9681 378.731 55.2171 378.793 55.5847C379.038 57.0346 379.162 58.5043 379.162 59.9515C379.162 60.3353 379.153 60.7182 379.136 61.0993C379.121 61.4625 378.823 61.7438 378.466 61.7438ZM377.019 52.0243C376.74 52.0243 376.479 51.8499 376.383 51.5712C375.82 49.9407 375.089 48.329 374.21 46.782C374.027 46.4584 374.14 46.0467 374.462 45.8625C374.785 45.6782 375.195 45.7915 375.379 46.1151C376.298 47.7339 377.064 49.4211 377.654 51.1299C377.776 51.4822 377.589 51.8661 377.238 51.9874C377.166 52.0126 377.091 52.0243 377.019 52.0243ZM372.309 43.3879C372.107 43.3879 371.908 43.298 371.775 43.1254C370.722 41.7591 369.533 40.4404 368.239 39.2054C367.97 38.9492 367.959 38.5222 368.216 38.2526C368.471 37.9829 368.897 37.9712 369.167 38.2292C370.509 39.511 371.746 40.8809 372.84 42.3011C373.067 42.5959 373.013 43.0193 372.718 43.2467C372.596 43.342 372.451 43.3879 372.309 43.3879ZM365.283 36.4881C365.142 36.4881 365 36.444 364.878 36.3524C363.506 35.3133 362.021 34.329 360.462 33.4274C360.14 33.2413 360.031 32.8288 360.216 32.5061C360.401 32.1843 360.812 32.0728 361.135 32.2598C362.74 33.1901 364.273 34.204 365.689 35.2764C365.985 35.5011 366.044 35.9236 365.821 36.2211C365.688 36.3955 365.486 36.4881 365.283 36.4881ZM294.796 33.8813C294.562 33.8813 294.336 33.7609 294.213 33.5443C294.027 33.2216 294.137 32.8099 294.458 32.6238C296.016 31.7222 297.637 30.8728 299.274 30.098C299.613 29.9362 300.012 30.0845 300.17 30.4198C300.329 30.7569 300.185 31.1577 299.849 31.3168C298.244 32.0755 296.657 32.9079 295.131 33.7906C295.025 33.8526 294.909 33.8813 294.796 33.8813ZM356.835 31.4184C356.737 31.4184 356.637 31.3968 356.544 31.351C354.951 30.5789 353.307 29.8661 351.658 29.2333C351.311 29.1002 351.138 28.7101 351.271 28.3622C351.404 28.0144 351.792 27.84 352.14 27.9739C353.823 28.6211 355.502 29.3483 357.129 30.1366C357.464 30.2984 357.604 30.702 357.442 31.0373C357.326 31.2782 357.085 31.4184 356.835 31.4184ZM303.679 29.6054C303.41 29.6054 303.156 29.4427 303.053 29.1766C302.917 28.8297 303.088 28.4386 303.434 28.3029C305.112 27.6449 306.84 27.0472 308.571 26.524C308.925 26.4171 309.301 26.6193 309.409 26.9753C309.517 27.3321 309.316 27.7079 308.959 27.8157C307.264 28.3272 305.57 28.9133 303.926 29.5577C303.844 29.5901 303.761 29.6054 303.679 29.6054ZM347.659 27.8175C347.595 27.8175 347.528 27.8085 347.463 27.7879C345.777 27.2719 344.043 26.8198 342.311 26.4431C341.949 26.364 341.718 26.0054 341.796 25.6413C341.875 25.2773 342.235 25.0463 342.597 25.1254C344.366 25.5092 346.135 25.9712 347.856 26.498C348.211 26.6067 348.411 26.9834 348.303 27.3402C348.213 27.6306 347.947 27.8175 347.659 27.8175ZM313.096 26.6912C312.79 26.6912 312.513 26.48 312.442 26.169C312.358 25.8058 312.584 25.4445 312.947 25.3609C314.701 24.9555 316.497 24.6157 318.284 24.3497C318.644 24.2921 318.994 24.5492 319.049 24.9168C319.104 25.2854 318.849 25.6288 318.483 25.6827C316.73 25.9434 314.969 26.2769 313.248 26.6742C313.197 26.6858 313.146 26.6912 313.096 26.6912ZM338.044 25.6575C338.012 25.6575 337.979 25.6548 337.946 25.6503C336.199 25.3942 334.417 25.2063 332.65 25.0921C332.28 25.0679 331.998 24.747 332.023 24.3757C332.047 24.0036 332.367 23.7222 332.738 23.7465C334.541 23.8634 336.359 24.0557 338.141 24.3164C338.509 24.3703 338.762 24.7128 338.709 25.0813C338.659 25.4157 338.372 25.6575 338.044 25.6575ZM322.836 25.1775C322.489 25.1775 322.195 24.9106 322.167 24.5582C322.136 24.187 322.412 23.8616 322.782 23.831C324.583 23.6836 326.41 23.6072 328.212 23.6036H328.213C328.583 23.6036 328.884 23.9047 328.885 24.276C328.886 24.6481 328.586 24.9501 328.213 24.9519C326.448 24.9555 324.657 25.0301 322.891 25.1748C322.874 25.1766 322.855 25.1775 322.836 25.1775Z" fill="#DCDCDC"/>
</g>
</g>
</g>
<defs>
<clipPath id="clip0_1_2">
<rect width="400" height="400" fill="white"/>
</clipPath>
</defs>
</svg>
