<svg width="150" height="150" viewBox="0 0 150 150" fill="none" xmlns="http://www.w3.org/2000/svg">
<g clip-path="url(#clip0_1_5)">
<path d="M75.0006 0C33.5843 0 0 34.384 0 76.8006C0 110.733 21.49 139.521 51.29 149.677C55.0383 150.387 56.4144 148.01 56.4144 145.982C56.4144 144.151 56.3449 138.101 56.3126 131.683C35.4473 136.329 31.0445 122.622 31.0445 122.622C27.6328 113.745 22.717 111.384 22.717 111.384C15.9122 106.618 23.23 106.716 23.23 106.716C30.7613 107.257 34.727 114.63 34.727 114.63C41.4163 126.371 52.2724 122.977 56.5523 121.014C57.2254 116.05 59.1691 112.662 61.314 110.745C44.6554 108.803 27.1434 102.217 27.1434 72.7894C27.1434 64.4045 30.0733 57.5534 34.871 52.175C34.0923 50.2406 31.5251 42.4293 35.5976 31.8506C35.5976 31.8506 41.8957 29.7865 56.2281 39.723C62.2107 38.0213 68.6268 37.168 75.0006 37.1387C81.3745 37.168 87.7955 38.0213 93.7893 39.723C108.104 29.7865 114.394 31.8506 114.394 31.8506C118.476 42.4293 115.908 50.2406 115.129 52.175C119.938 57.5534 122.848 64.4045 122.848 72.7894C122.848 102.287 105.302 108.782 88.6015 110.684C91.2917 113.067 93.6887 117.741 93.6887 124.906C93.6887 135.182 93.6017 143.452 93.6017 145.982C93.6017 148.026 94.9518 150.421 98.7535 149.666C128.537 139.5 150 110.722 150 76.8006C150 34.384 116.421 0 75.0006 0ZM28.0902 109.404C27.925 109.786 27.3388 109.9 26.8047 109.638C26.2607 109.388 25.9552 108.867 26.1316 108.485C26.293 108.092 26.8805 107.982 27.4232 108.246C27.9685 108.496 28.279 109.021 28.0902 109.404ZM31.7794 112.775C31.4217 113.115 30.7224 112.957 30.248 112.42C29.7574 111.885 29.6655 111.169 30.0282 110.824C30.397 110.484 31.0752 110.643 31.567 111.179C32.0576 111.721 32.1532 112.432 31.7794 112.775ZM34.3103 117.088C33.8508 117.415 33.0994 117.108 32.6349 116.425C32.1753 115.742 32.1753 114.923 32.6448 114.595C33.1105 114.267 33.8508 114.562 34.3215 115.24C34.7798 115.934 34.7798 116.753 34.3103 117.088ZM38.5906 122.083C38.1795 122.547 37.3039 122.422 36.6631 121.789C36.0073 121.17 35.8248 120.291 36.2371 119.827C36.6532 119.361 37.5337 119.492 38.1795 120.12C38.8303 120.738 39.0291 121.624 38.5906 122.083ZM44.1226 123.769C43.9412 124.37 43.0979 124.644 42.2484 124.388C41.4002 124.125 40.845 123.42 41.0164 122.813C41.1927 122.207 42.0398 121.922 42.8955 122.196C43.7425 122.458 44.2989 123.157 44.1226 123.769ZM50.4181 124.484C50.4392 125.118 49.7189 125.643 48.8272 125.654C47.9304 125.675 47.2051 125.162 47.1952 124.539C47.1952 123.899 47.8994 123.379 48.7961 123.364C49.6879 123.346 50.4181 123.855 50.4181 124.484ZM56.6028 124.241C56.7096 124.859 56.0899 125.494 55.2044 125.663C54.3337 125.826 53.5277 125.445 53.4171 124.832C53.3091 124.198 53.94 123.564 54.8094 123.399C55.6962 123.242 56.4898 123.613 56.6028 124.241Z" fill="#161614"/>
</g>
<defs>
<clipPath id="clip0_1_5">
<rect width="150" height="150" fill="white"/>
</clipPath>
</defs>
</svg>
