<svg width="151" height="151" viewBox="0 0 151 151" fill="none" xmlns="http://www.w3.org/2000/svg">
<g clip-path="url(#clip0_1_2)">
<path d="M0.5 72.375C0.5 38.4928 0.5 21.5517 11.0258 11.0258C21.5517 0.5 38.4928 0.5 72.375 0.5H78.625C112.507 0.5 129.448 0.5 139.974 11.0258C150.5 21.5517 150.5 38.4928 150.5 72.375V78.625C150.5 112.507 150.5 129.448 139.974 139.974C129.448 150.5 112.507 150.5 78.625 150.5H72.375C38.4928 150.5 21.5517 150.5 11.0258 139.974C0.5 129.448 0.5 112.507 0.5 78.625L0.5 72.375Z" fill="#2787F5"/>
<path fill-rule="evenodd" clip-rule="evenodd" d="M41.1278 47.375H30.1878C27.0621 47.375 26.4369 48.8463 26.4369 50.4681C26.4369 53.3653 30.1458 67.7337 43.7063 86.7372C52.7466 99.715 65.4834 106.75 77.0738 106.75C84.0278 106.75 84.8881 105.188 84.8881 102.496V92.6875C84.8881 89.5625 85.5469 88.9387 87.7488 88.9387C89.3716 88.9387 92.1531 89.75 98.6438 96.0072C106.062 103.423 107.284 106.75 111.457 106.75H122.397C125.522 106.75 127.085 105.188 126.184 102.104C125.197 99.0309 121.656 94.5719 116.956 89.2866C114.406 86.2737 110.582 83.0294 109.423 81.4069C107.8 79.3212 108.263 78.3941 109.423 76.5403C109.423 76.5403 122.751 57.7684 124.142 51.3956C124.837 49.0778 124.142 47.375 120.834 47.375H109.894C107.112 47.375 105.83 48.8463 105.134 50.4681C105.134 50.4681 99.5709 64.0256 91.6897 72.8322C89.1397 75.3812 87.9806 76.1925 86.5897 76.1925C85.8944 76.1925 84.8878 75.3813 84.8878 73.0641V51.3956C84.8878 48.6144 84.0806 47.375 81.7622 47.375H64.5706C62.8325 47.375 61.7869 48.6656 61.7869 49.8891C61.7869 52.5253 65.7275 53.1334 66.1337 60.5494V76.6563C66.1337 80.1875 65.4956 80.8278 64.105 80.8278C60.3962 80.8278 51.3747 67.2097 46.0241 51.6272C44.9756 48.5984 43.9238 47.375 41.1278 47.375Z" fill="white"/>
</g>
<defs>
<clipPath id="clip0_1_2">
<rect width="150" height="150" fill="white" transform="translate(0.5 0.5)"/>
</clipPath>
</defs>
</svg>
