<svg width="202" height="203" viewBox="0 0 202 203" fill="none" xmlns="http://www.w3.org/2000/svg">
<path d="M152 76.8235L134 2L83.5 59.8824L152 76.8235Z" fill="url(#paint0_linear_2_11)"/>
<path d="M152 76.8235L83.5 59.8824L59 112.588L149 130L152 76.8235Z" fill="url(#paint1_linear_2_11)"/>
<path d="M59 112.588L109 202L149 130L59 112.588Z" fill="url(#paint2_linear_2_11)"/>
<path d="M42.5 202H109L59 112.588L42.5 202Z" fill="url(#paint3_linear_2_11)"/>
<path d="M2 130L42.5 202L59 112.588L2 130Z" fill="url(#paint4_linear_2_11)"/>
<path d="M36.5 64.1176L2 130L59 112.588L83.5 59.8824L36.5 64.1176Z" fill="url(#paint5_linear_2_11)"/>
<path d="M134 2L36.5 64.1176L83.5 59.8824L134 2Z" fill="url(#paint6_radial_2_11)"/>
<path d="M42.5 202H109M42.5 202L2 130M42.5 202L59 112.588M109 202L59 112.588M109 202L149 130M152 76.8235L134 2M152 76.8235L83.5 59.8824M152 76.8235L149 130M134 2L36.5 64.1176M134 2L83.5 59.8824M36.5 64.1176L2 130M36.5 64.1176L83.5 59.8824M2 130L59 112.588M83.5 59.8824L59 112.588M59 112.588L149 130" stroke="#C0C3FF" stroke-width="2"/>
<path d="M195.4 186.6C195.4 190.853 193.86 194.52 190.78 197.6C187.847 200.533 184.253 202 180 202H118.4V186.6H177.8V155.8H133.8C129.547 155.8 125.88 154.333 122.8 151.4C119.867 148.32 118.4 144.653 118.4 140.4V109.6C118.4 105.347 119.867 101.753 122.8 98.82C125.88 95.74 129.547 94.2 133.8 94.2H195.4V109.6H136V140.4H180C184.253 140.4 187.847 141.94 190.78 145.02C193.86 147.953 195.4 151.547 195.4 155.8V186.6Z" fill="#C0C3FF"/>
<defs>
<linearGradient id="paint0_linear_2_11" x1="105.5" y1="36.8235" x2="141.816" y2="72.9039" gradientUnits="userSpaceOnUse">
<stop stop-color="#6100FF"/>
<stop offset="1" stop-color="#4900BF"/>
</linearGradient>
<linearGradient id="paint1_linear_2_11" x1="80" y1="78.2353" x2="149.407" y2="125.35" gradientUnits="userSpaceOnUse">
<stop stop-color="#6100FF"/>
<stop offset="0.578531" stop-color="#4C00C8"/>
</linearGradient>
<linearGradient id="paint2_linear_2_11" x1="106.5" y1="120.588" x2="110.931" y2="202.501" gradientUnits="userSpaceOnUse">
<stop stop-color="#5400DE"/>
<stop offset="1" stop-color="#380092"/>
</linearGradient>
<linearGradient id="paint3_linear_2_11" x1="53.5" y1="140.824" x2="74.6111" y2="200.956" gradientUnits="userSpaceOnUse">
<stop stop-color="#5F00F9"/>
<stop offset="1" stop-color="#3E00A3"/>
</linearGradient>
<linearGradient id="paint4_linear_2_11" x1="30" y1="124.353" x2="40.6614" y2="193.735" gradientUnits="userSpaceOnUse">
<stop stop-color="#6630FF"/>
<stop offset="1" stop-color="#4600B7"/>
</linearGradient>
<linearGradient id="paint5_linear_2_11" x1="53.5" y1="63.1765" x2="41.4822" y2="123.238" gradientUnits="userSpaceOnUse">
<stop stop-color="#777CFF"/>
<stop offset="1" stop-color="#6100FF"/>
</linearGradient>
<radialGradient id="paint6_radial_2_11" cx="0" cy="0" r="1" gradientUnits="userSpaceOnUse" gradientTransform="translate(80 41.5294) rotate(33.6901) scale(14.4222 55.5927)">
<stop stop-color="#9599FF"/>
<stop offset="1" stop-color="#7F5FFF"/>
</radialGradient>
</defs>
</svg>
